<svg width="180" height="180" viewBox="0 0 180 180" fill="none" xmlns="http://www.w3.org/2000/svg">
<path d="M11.7644 103.33C12.4801 103.889 13.2406 104.493 14.0234 105.097C13.5313 105.969 13.0616 106.797 12.6143 107.602C7.60438 116.436 5.3007 120.485 6.70975 124.063C8.09643 127.642 12.5249 129.073 22.2093 132.182C23.2828 132.517 24.4011 132.898 25.5865 133.278C25.4747 134.172 25.3628 135.045 25.2734 135.872C24.0432 145.825 23.4841 150.365 25.9667 153.183C27.7783 155.241 30.7306 155.532 33.6382 155.532C36.1655 155.532 39.4086 155.263 43.5239 154.928C44.5527 154.838 45.6486 154.749 46.7893 154.66C47.1471 155.755 47.4826 156.807 47.7957 157.791C51.3072 168.683 52.9175 173.67 58.084 173.67C61.3047 173.67 65.2411 171.434 72.3981 167.363C73.1138 166.961 73.8743 166.513 74.6571 166.088C75.4622 167.028 76.2227 167.945 76.9607 168.795C83.4916 176.489 86.4886 180 90.2684 180C94.16 180 97.0452 176.31 103.33 168.236C103.889 167.52 104.493 166.759 105.097 165.977C105.969 166.469 106.797 166.938 107.602 167.386C114.759 171.456 118.695 173.693 121.916 173.693C127.082 173.693 128.693 168.705 132.204 157.813C132.54 156.74 132.92 155.621 133.3 154.436C134.195 154.548 135.067 154.66 135.895 154.749C140.793 155.353 144.327 155.8 147.033 155.8C149.18 155.8 151.864 155.554 153.608 153.675C156.136 150.947 155.733 146.116 154.95 136.498C154.861 135.47 154.771 134.374 154.682 133.233C155.778 132.875 156.807 132.54 157.813 132.227C167.498 129.118 171.904 127.686 173.313 124.108C174.699 120.529 172.418 116.481 167.408 107.647C167.005 106.931 166.558 106.17 166.133 105.388C167.073 104.582 167.99 103.822 168.839 103.084C176.578 96.5084 180.112 93.4891 180.045 89.6421C179.955 85.7952 176.31 82.9324 168.28 76.6923C167.565 76.1332 166.804 75.5293 166.021 74.9254C166.513 74.0532 166.983 73.2256 167.43 72.4205C172.44 63.586 174.744 59.5378 173.335 55.9592C171.948 52.3807 167.52 50.9493 157.858 47.8405C156.784 47.505 155.666 47.1247 154.481 46.7445C154.592 45.8499 154.704 44.9776 154.794 44.1501C156.024 34.1973 156.605 29.6571 154.1 26.839C152.289 24.7813 149.336 24.4906 146.429 24.4906C143.902 24.4906 140.659 24.7589 136.543 25.0944C135.514 25.1839 134.418 25.2734 133.278 25.3628C132.92 24.2669 132.584 23.2157 132.271 22.2316C128.76 11.3395 127.15 6.35189 121.983 6.35189C118.785 6.35189 114.826 8.58847 107.669 12.659C106.953 13.0616 106.193 13.5089 105.41 13.9339C104.605 12.9945 103.844 12.0775 103.106 11.2276C96.5755 3.5338 93.5785 0.0223694 89.7763 0.0223694C85.9742 0.0223694 82.9995 3.71273 76.7147 11.7868C76.1556 12.5025 75.5517 13.2629 74.9478 14.0457C74.0755 13.5537 73.248 13.084 72.4428 12.6367C65.2858 8.5661 61.3494 6.32952 58.1287 6.32952C52.9622 6.32952 51.3519 11.3171 47.8405 22.2092C47.505 23.2828 47.1248 24.4011 46.7445 25.5865C45.8499 25.4746 44.9776 25.3628 44.1501 25.2734C39.252 24.6695 35.7182 24.2222 33.0119 24.2222C30.8648 24.2222 28.1809 24.4682 26.4364 26.3469C23.9314 29.0755 24.3116 33.9066 25.0944 43.5238C25.1839 44.5527 25.2734 45.6486 25.3628 46.7893C24.2669 47.1471 23.2381 47.4826 22.2316 47.7957C12.5472 50.9046 8.14116 52.336 6.73211 55.9145C5.34543 59.493 7.62675 63.5412 12.6367 72.3757C13.0393 73.0914 13.4866 73.8519 13.9115 74.6347C12.9722 75.4398 12.0552 76.2003 11.2053 76.9384C3.44434 83.5363 -0.0894556 86.5333 7.6422e-06 90.3802C0.0894709 94.2271 3.7351 97.09 11.7644 103.33ZM23.3946 128.469C15.9692 126.076 11.0711 124.488 10.3554 122.654C9.63967 120.798 12.167 116.325 16.0139 109.548C16.3718 108.899 16.752 108.25 17.1322 107.557C20.1292 109.928 23.5065 112.679 27.3087 115.944C26.9061 121.066 26.4588 125.472 26.0114 129.319C25.0944 129.028 24.1998 128.738 23.3723 128.469H23.3946ZM26.1009 89.1054C23.3946 83.7376 21.0015 79.3091 18.8767 75.507C21.9856 72.8007 25.5418 69.6471 29.6123 65.8449L30.2609 65.241V64.3688C30.0596 58.6208 29.7689 53.745 29.4558 49.5403C33.4593 48.2207 38.0666 46.6103 43.4568 44.575L44.2843 44.2619L44.5974 43.4344C46.5656 38.2232 48.1312 33.7276 49.4284 29.8136C53.745 30.328 58.755 30.8424 64.749 31.2898L65.7331 31.3569L66.3817 30.6188C70.1839 26.2127 73.2704 22.4105 75.9095 19.078C79.6223 21.1357 83.9389 23.4841 89.1277 26.1009L90 26.5482L90.8723 26.1009C96.2401 23.3946 100.668 21.0015 104.471 18.8767C107.177 21.9856 110.331 25.5417 114.133 29.6123L114.737 30.2609H115.609C121.357 30.0596 126.233 29.7689 130.437 29.4558C131.757 33.4592 133.367 38.0666 135.403 43.4568L135.716 44.2843L136.543 44.5974C141.754 46.5656 146.25 48.1312 150.164 49.4284C149.65 53.745 149.135 58.755 148.688 64.749L148.621 65.7331L149.359 66.3817C153.765 70.1839 157.567 73.2704 160.9 75.9095C158.842 79.6223 156.494 83.9389 153.877 89.1277L153.429 90L153.877 90.8723C156.583 96.2401 158.976 100.668 161.101 104.471C157.992 107.177 154.436 110.331 150.365 114.133L149.717 114.737V115.609C149.918 121.357 150.209 126.233 150.522 130.437C146.518 131.757 141.911 133.367 136.521 135.403L135.693 135.716L135.38 136.543C133.412 141.754 131.846 146.25 130.549 150.164C126.233 149.65 121.223 149.135 115.229 148.688L114.245 148.621L113.596 149.359C109.794 153.765 106.707 157.567 104.068 160.9C100.355 158.842 96.0388 156.494 90.8499 153.877L89.9776 153.429L89.1054 153.877C83.7376 156.583 79.3091 158.976 75.507 161.101C72.8007 157.992 69.6471 154.436 65.8449 150.365L65.2411 149.717H64.3688C58.6208 149.918 53.745 150.209 49.5403 150.522C48.2207 146.518 46.6103 141.911 44.5751 136.521L44.2619 135.693L43.4344 135.38C38.2232 133.412 33.7276 131.846 29.8136 130.549C30.328 126.233 30.8424 121.223 31.2898 115.229L31.3569 114.245L30.6188 113.596C26.2127 109.794 22.4105 106.707 19.078 104.068C21.1357 100.355 23.4841 96.0388 26.1009 90.8499L26.5482 89.9776L26.1009 89.1054ZM43.1884 151.036C39.1625 151.372 35.9866 151.618 33.6158 151.618C30.999 151.618 29.4781 151.282 28.8743 150.589C27.5547 149.09 28.1809 144.036 29.1426 136.364C29.2097 135.783 29.2992 135.157 29.3663 134.553C32.8554 135.716 36.7694 137.08 41.2425 138.757C42.9647 143.32 44.3514 147.301 45.5144 150.857C44.7093 150.924 43.9264 150.992 43.1884 151.036ZM70.4523 163.964C64.3017 167.453 60.2535 169.756 58.084 169.756C55.9145 169.756 54.5502 165.954 51.5308 156.583C51.3072 155.867 51.0611 155.129 50.8151 154.369C54.5502 154.1 58.755 153.854 63.6307 153.698C66.8961 157.187 69.6471 160.296 72.0626 163.069C71.5258 163.382 70.9891 163.673 70.4747 163.964H70.4523ZM100.244 165.82C95.4349 171.993 92.2589 176.086 90.2684 176.086C88.2778 176.086 84.9677 172.172 79.9354 166.267C79.3539 165.596 78.75 164.881 78.1238 164.143C81.501 162.264 85.415 160.161 90 157.835C94.4955 160.117 98.3201 162.174 101.653 164.031C101.161 164.657 100.691 165.261 100.244 165.842V165.82ZM128.469 156.605C125.45 165.977 124.13 169.779 121.916 169.779C119.747 169.779 115.676 167.475 109.548 163.986C108.899 163.628 108.25 163.248 107.557 162.868C109.928 159.871 112.679 156.493 115.944 152.691C121.066 153.094 125.472 153.541 129.319 153.989C129.028 154.906 128.738 155.8 128.469 156.628V156.605ZM151.036 136.812C151.663 144.483 152.065 149.56 150.723 151.036C150.388 151.416 149.627 151.909 147.033 151.909C144.573 151.909 141.128 151.484 136.387 150.902C135.805 150.835 135.179 150.745 134.575 150.678C135.738 147.189 137.102 143.275 138.78 138.802C143.342 137.08 147.324 135.693 150.88 134.53C150.947 135.335 151.014 136.096 151.059 136.856L151.036 136.812ZM163.964 109.548C167.811 116.325 170.36 120.798 169.622 122.654C168.907 124.51 164.008 126.098 156.583 128.469C155.867 128.693 155.129 128.939 154.369 129.185C154.1 125.45 153.854 121.245 153.698 116.369C157.187 113.104 160.296 110.353 163.069 107.937C163.382 108.474 163.673 109.011 163.964 109.525V109.548ZM165.82 79.7565C171.971 84.5427 176.041 87.7187 176.086 89.7092C176.131 91.6998 172.194 95.0323 166.267 100.087C165.596 100.668 164.881 101.272 164.143 101.899C162.264 98.5214 160.162 94.6073 157.835 90.0224C160.117 85.5268 162.174 81.7023 164.031 78.3698C164.657 78.8618 165.261 79.3315 165.842 79.7788L165.82 79.7565ZM156.605 51.5308C164.031 53.924 168.929 55.5119 169.645 57.3459C170.36 59.2023 167.833 63.6754 163.986 70.4523C163.628 71.1009 163.248 71.7495 162.868 72.4428C159.871 70.0721 156.494 67.3211 152.691 64.0557C153.094 58.9339 153.541 54.5278 153.989 50.6809C154.906 50.9717 155.8 51.2624 156.628 51.5308H156.605ZM136.812 28.9637C140.837 28.6282 144.013 28.3822 146.384 28.3822C149.001 28.3822 150.522 28.7177 151.126 29.411C152.445 30.9095 151.819 35.9642 150.857 43.6357C150.79 44.2172 150.701 44.8434 150.634 45.4473C147.145 44.2843 143.231 42.92 138.757 41.2425C137.035 36.6799 135.649 32.6988 134.486 29.1426C135.291 29.0755 136.074 29.0084 136.812 28.9637ZM109.548 16.0363C115.698 12.5472 119.747 10.2435 121.916 10.2435C124.085 10.2435 125.45 14.0457 128.469 23.417C128.693 24.1327 128.939 24.8708 129.185 25.6312C125.472 25.8996 121.245 26.1456 116.369 26.3022C113.104 22.8131 110.353 19.7043 107.937 16.9309C108.474 16.6178 109.011 16.327 109.525 16.0363H109.548ZM79.7565 14.1799C84.5651 8.00696 87.7411 3.91402 89.7316 3.91402C91.7222 3.91402 95.0323 7.82803 100.065 13.7326C100.646 14.4036 101.25 15.1193 101.876 15.8574C98.499 17.7361 94.585 19.8385 90 22.1645C85.5045 19.8832 81.6799 17.8255 78.3474 15.9692C78.8395 15.3429 79.3091 14.7391 79.7565 14.1799ZM51.5308 23.3946C54.5502 14.0234 55.8698 10.2212 58.084 10.2212C60.2982 10.2212 64.3241 12.5249 70.4523 16.0139C71.1009 16.3718 71.7495 16.752 72.4428 17.1322C70.0721 20.1292 67.3211 23.5065 64.0557 27.3086C58.9339 26.9061 54.5278 26.4587 50.6809 26.0114C50.9717 25.0944 51.2624 24.1998 51.5308 23.3723V23.3946ZM28.9637 43.1884C28.3375 35.5169 27.9349 30.4399 29.2768 28.9637C29.6123 28.5835 30.3728 28.0914 32.9672 28.0914C35.5616 28.0914 38.8718 28.5164 43.6133 29.0979C44.1948 29.165 44.8211 29.2545 45.425 29.3216C44.2619 32.8106 42.8976 36.7246 41.2202 41.1978C36.6576 42.92 32.6764 44.3067 29.1203 45.4697C29.0532 44.6645 28.9861 43.9041 28.9414 43.1436L28.9637 43.1884ZM16.0363 70.4523C12.1894 63.6754 9.63967 59.2023 10.3777 57.3459C11.0934 55.4896 15.9916 53.924 23.417 51.5308C24.1327 51.3072 24.8708 51.0611 25.6312 50.8151C25.8996 54.5502 26.1456 58.755 26.3022 63.6307C22.8131 66.8961 19.7043 69.6471 16.9309 72.0626C16.6178 71.5258 16.327 70.9891 16.0363 70.4746V70.4523ZM13.755 79.9354C14.426 79.3539 15.1417 78.75 15.8797 78.1237C17.7585 81.501 19.8608 85.415 22.1869 90C19.9056 94.4955 17.8479 98.3201 15.9916 101.653C15.3653 101.161 14.7614 100.691 14.2023 100.244C8.0517 95.4572 3.98112 92.2813 3.93639 90.2907C3.89166 88.3002 7.82804 84.9677 13.755 79.913V79.9354Z" fill="#E9EADD"/>
</svg>
