<?xml version="1.0" standalone="no"?>
<!DOCTYPE svg PUBLIC "-//W3C//DTD SVG 20010904//EN"
 "http://www.w3.org/TR/2001/REC-SVG-20010904/DTD/svg10.dtd">
<svg version="1.0" xmlns="http://www.w3.org/2000/svg"
 width="315.000000pt" height="489.000000pt" viewBox="0 0 315.000000 489.000000"
 preserveAspectRatio="xMidYMid meet">

<g transform="translate(0.000000,489.000000) scale(0.100000,-0.100000)"
fill="#000000" stroke="none">
<path d="M655 4786 c-128 -25 -235 -88 -342 -199 -86 -90 -130 -164 -165 -277
l-23 -75 -3 -1730 c-2 -1226 0 -1755 8 -1815 22 -162 72 -261 196 -384 90 -89
175 -145 274 -179 65 -22 66 -22 930 -25 972 -3 932 -6 1089 70 110 54 243
179 307 287 56 95 82 202 63 258 -18 57 -38 82 -80 104 -49 24 -90 24 -139 -1
-47 -24 -56 -38 -105 -153 -32 -75 -47 -96 -102 -147 -74 -68 -132 -93 -247
-109 -49 -7 -335 -11 -787 -11 -805 0 -801 0 -910 72 -67 45 -128 120 -153
188 -15 41 -16 187 -14 1800 l3 1755 28 58 c35 71 110 148 180 185 l52 27 835
3 c935 3 905 5 1010 -67 74 -51 113 -104 144 -199 34 -100 65 -133 135 -140
99 -9 166 68 166 193 0 62 -5 80 -37 145 -65 131 -177 242 -303 304 -150 73
-101 70 -1075 72 -653 2 -890 -1 -935 -10z"/>
<path d="M843 3960 c-26 -13 -54 -40 -73 -68 l-30 -45 0 -1321 c0 -1276 1
-1322 19 -1363 20 -43 74 -86 123 -98 57 -14 135 30 168 95 19 36 19 64 20
574 1 295 4 536 8 535 4 0 26 -26 48 -57 529 -730 672 -888 909 -1010 109 -56
163 -66 340 -67 180 0 249 15 375 81 224 117 392 368 349 522 -16 58 -64 108
-112 117 -94 18 -157 -27 -201 -142 -36 -93 -94 -159 -183 -206 -138 -72 -236
-84 -353 -43 -60 21 -137 65 -177 101 -85 76 -185 185 -272 294 -58 74 -142
177 -185 230 -96 117 -139 202 -144 288 -4 56 -1 68 28 120 18 32 90 136 159
231 69 95 133 183 141 195 116 171 166 232 290 357 105 105 156 136 256 153
178 31 388 -77 443 -227 28 -76 53 -110 95 -130 111 -53 218 38 220 188 1 78
-34 152 -117 242 -152 166 -339 244 -583 245 -237 0 -436 -90 -619 -282 -102
-107 -320 -403 -496 -674 -46 -71 -111 -172 -145 -223 l-61 -93 -6 107 c-4 59
-7 370 -7 692 0 653 4 616 -72 668 -51 36 -103 40 -155 14z"/>
</g>
</svg>
