<svg width="109" height="22" viewBox="0 0 109 22" fill="none" xmlns="http://www.w3.org/2000/svg">
<path d="M31.9567 2.51428H35.8794L42.2258 20.1143H38.5654L37.516 17.1977H30.3201L29.2707 20.1143H25.6103L31.9567 2.51428ZM31.5819 13.728H36.2542L33.9056 7.27886L31.5819 13.728Z" fill="#181818"/>
<path d="M55.857 20.1143H51.8843L49.2358 15.5257L47.7117 17.3486V20.1143H44.2637V1.25714H47.7117V11.9554L51.3846 7.54286H55.882L51.597 12.7097L55.857 20.1143Z" fill="#181818"/>
<path d="M61.0263 20.3406C60.385 20.2903 59.7687 20.1562 59.1774 19.9383C58.5861 19.712 58.0572 19.4103 57.5908 19.0331C57.1327 18.6476 56.7746 18.1867 56.5164 17.6503L59.4148 16.3931C59.5064 16.5272 59.6438 16.6739 59.827 16.8331C60.0103 16.984 60.231 17.1181 60.4892 17.2354C60.7557 17.3528 61.0638 17.4114 61.4136 17.4114C61.6718 17.4114 61.9217 17.3821 62.1632 17.3234C62.4047 17.2564 62.6004 17.1516 62.7504 17.0091C62.9003 16.8583 62.9752 16.6613 62.9752 16.4183C62.9752 16.1501 62.8794 15.9448 62.6879 15.8023C62.4963 15.6598 62.2631 15.555 61.9883 15.488C61.7218 15.4126 61.4636 15.3497 61.2137 15.2994C60.4475 15.1653 59.7229 14.9265 59.04 14.5829C58.3654 14.2309 57.8157 13.7783 57.3909 13.2251C56.9662 12.672 56.7538 12.0099 56.7538 11.2389C56.7538 10.3924 56.9745 9.66324 57.4159 9.05143C57.8573 8.43124 58.432 7.95352 59.1399 7.61829C59.8479 7.28305 60.6141 7.11543 61.4386 7.11543C62.413 7.11543 63.3167 7.32076 64.1496 7.73143C64.9824 8.14209 65.6529 8.72038 66.1609 9.46628L63.4375 11.088C63.3292 10.9288 63.1876 10.7779 63.0127 10.6354C62.8461 10.4846 62.6504 10.3589 62.4255 10.2583C62.209 10.1493 61.9758 10.0865 61.7259 10.0697C61.4011 10.0446 61.1055 10.0655 60.8389 10.1326C60.5724 10.1912 60.3601 10.3044 60.2018 10.472C60.0519 10.6396 59.9769 10.8659 59.9769 11.1509C59.9769 11.4274 60.0977 11.6328 60.3392 11.7669C60.5808 11.8926 60.8598 11.989 61.1763 12.056C61.4927 12.1147 61.7717 12.1859 62.0133 12.2697C62.7379 12.5044 63.4166 12.8061 64.0496 13.1749C64.6909 13.5352 65.2073 13.9794 65.5987 14.5074C65.9902 15.0354 66.1734 15.6556 66.1484 16.368C66.1484 17.1977 65.9027 17.9269 65.4113 18.5554C64.9199 19.1756 64.2828 19.6491 63.4999 19.976C62.7254 20.2945 61.9008 20.416 61.0263 20.3406Z" fill="#181818"/>
<path d="M79.8792 12.1189V20.1143H76.4312V13.0743C76.4312 12.6301 76.3229 12.232 76.1064 11.88C75.8982 11.5196 75.615 11.2347 75.2569 11.0251C74.9071 10.8156 74.5156 10.7109 74.0825 10.7109C73.6494 10.7109 73.2538 10.8156 72.8957 11.0251C72.5376 11.2347 72.2544 11.5196 72.0462 11.88C71.838 12.232 71.7339 12.6301 71.7339 13.0743V20.1143H68.2859L68.2734 1.25714H71.7214L71.7339 8.47314C72.1503 8.07086 72.6375 7.75657 73.1955 7.53028C73.7619 7.304 74.3574 7.19086 74.982 7.19086C75.8898 7.19086 76.7102 7.41295 77.4431 7.85714C78.1843 8.30133 78.7757 8.89638 79.2171 9.64229C79.6585 10.3798 79.8792 11.2053 79.8792 12.1189Z" fill="#181818"/>
<path d="M91.3023 7.54286H94.7504V20.1143H91.2898L91.1274 18.8069C90.8026 19.293 90.3862 19.6869 89.8782 19.9886C89.3701 20.2903 88.7746 20.4411 88.0917 20.4411C87.1589 20.4411 86.2886 20.2651 85.4807 19.9131C84.6728 19.5611 83.9607 19.075 83.3444 18.4549C82.7281 17.8347 82.245 17.1181 81.8952 16.3051C81.5538 15.4838 81.383 14.6038 81.383 13.6651C81.383 12.7684 81.5454 11.9303 81.8702 11.1509C82.1951 10.3714 82.6531 9.68419 83.2445 9.08914C83.8358 8.49409 84.5146 8.02895 85.2808 7.69371C86.0553 7.35848 86.8882 7.19086 87.7794 7.19086C88.5456 7.19086 89.2327 7.35429 89.8407 7.68114C90.457 8.008 90.9942 8.42286 91.4523 8.92571L91.3023 7.54286ZM88.0042 17.1097C88.5706 17.1097 89.0828 16.963 89.5409 16.6697C89.9989 16.3764 90.3612 15.9825 90.6277 15.488C90.8942 14.9851 91.0275 14.432 91.0275 13.8286C91.0275 13.2168 90.8942 12.6636 90.6277 12.1691C90.3612 11.6747 89.9989 11.2808 89.5409 10.9874C89.0828 10.6941 88.5706 10.5474 88.0042 10.5474C87.4296 10.5474 86.909 10.6941 86.4426 10.9874C85.9762 11.2808 85.6056 11.6789 85.3308 12.1817C85.0559 12.6762 84.9185 13.2251 84.9185 13.8286C84.9185 14.432 85.0559 14.9851 85.3308 15.488C85.6139 15.9825 85.9887 16.3764 86.4551 16.6697C86.9215 16.963 87.4379 17.1097 88.0042 17.1097Z" fill="#181818"/>
<path d="M108.866 12.1189V20.1143H105.418V13.0743C105.418 12.6301 105.31 12.232 105.094 11.88C104.885 11.5196 104.602 11.2347 104.244 11.0251C103.894 10.8156 103.503 10.7109 103.07 10.7109C102.637 10.7109 102.241 10.8156 101.883 11.0251C101.525 11.2347 101.242 11.5196 101.033 11.88C100.825 12.232 100.721 12.6301 100.721 13.0743V20.1143H97.2731L97.2606 7.54286H100.709L100.721 8.47314C101.138 8.07086 101.625 7.75657 102.183 7.53028C102.749 7.304 103.345 7.19086 103.969 7.19086C104.877 7.19086 105.697 7.41295 106.43 7.85714C107.172 8.30133 107.763 8.89638 108.204 9.64229C108.646 10.3798 108.866 11.2053 108.866 12.1189Z" fill="#181818"/>
<path fill-rule="evenodd" clip-rule="evenodd" d="M0 11.2394L0.00106279 11.1292L0.00325442 11.0189L0.00658053 10.9086L0.0110355 10.7984L0.0166303 10.6881L0.0233539 10.5778L0.0312175 10.4676L0.04021 10.3574L0.0503423 10.2472L0.0616091 10.137L0.0740101 10.0271L0.0875402 9.91705L0.10221 9.80716L0.118014 9.69738L0.134947 9.58771L0.153015 9.4782L0.172217 9.36875L0.192542 9.25953L0.214002 9.1504L0.23659 9.04145L0.260308 8.93266L0.285143 8.82409L0.311113 8.71574L0.338195 8.60756L0.366406 8.49964L0.395729 8.3919L0.426175 8.28443L0.457734 8.17723L0.490406 8.07031L0.524184 7.96367L0.559074 7.8573L0.595072 7.7512L0.63217 7.64544L0.670365 7.54L0.709661 7.4349L0.750047 7.33012L0.791529 7.22573L0.834096 7.12167L0.877748 7.01805L0.922479 6.91476L0.968289 6.81186L1.01517 6.70939L1.06313 6.60737L1.11215 6.50573L1.16223 6.40453L1.21337 6.30382L1.26556 6.20356L1.31881 6.10373L1.37309 6.00446L1.42842 5.90562L1.48479 5.80728L1.54218 5.70949L1.6006 5.6122L1.66004 5.51545L1.72049 5.41926L1.78196 5.32362L1.84443 5.22857L1.90791 5.13403L1.97238 5.04014L2.03784 4.94681L2.10427 4.85408L2.17169 4.76201L2.24008 4.67049L2.30943 4.57968L2.37974 4.48948L2.451 4.39991L2.52321 4.31103L2.59636 4.22282L2.67045 4.1353L2.74546 4.04846L2.82139 3.96232L2.89823 3.8769L2.97598 3.7922L3.05463 3.70822L3.13417 3.62498L3.2146 3.54249L3.2959 3.46076L3.37807 3.37979L3.46111 3.29959L3.54499 3.22018L3.62973 3.14156L3.71531 3.06374L3.80171 2.98673L3.88894 2.91053L3.97699 2.83515L4.06584 2.76061L4.15549 2.68692L4.24593 2.61407L4.33716 2.54208L4.42916 2.47096L4.52189 2.40071L4.61545 2.33134L4.70972 2.26286L4.80472 2.19529L4.90042 2.12861L4.9969 2.06285L5.09404 1.998L5.19189 1.93408L5.29046 1.87109L5.38975 1.80905L5.48964 1.74796L5.59025 1.68782L5.69146 1.62864L5.79334 1.57044L5.89587 1.5132L5.99901 1.45696L6.10276 1.40169L6.20711 1.34743L6.31207 1.29416L6.41763 1.24191L6.52375 1.19066L6.63047 1.14044L6.73768 1.09124L6.8455 1.04308L6.95382 0.995946L7.06269 0.949861L7.17205 0.904827L7.28191 0.860843L7.39226 0.817916L7.50311 0.776061L7.61441 0.735267L7.72619 0.695558L7.83842 0.65692L7.95109 0.619366L8.06414 0.582906L8.17763 0.547536L8.29156 0.513265L8.40588 0.480101L8.52053 0.448041L8.63562 0.417087L8.75104 0.38725L8.8668 0.358534L8.98288 0.330946L9.09934 0.304475L9.21609 0.279141L9.33311 0.254936L9.45045 0.231869L9.56808 0.209946L9.68597 0.189161L9.80415 0.169526L9.92254 0.151041L10.0412 0.133705L10.16 0.11753L10.279 0.102509L10.3983 0.088649L10.5178 0.0759439L10.6374 0.064416L10.7571 0.0540485L10.8771 0.0448471L10.9971 0.0368225L11.6427 0L11.6796 3.10677L11.7007 3.10653L11.7898 3.1064L11.879 3.10715L11.9681 3.10877L12.0574 3.11127L12.1466 3.11465L12.2359 3.1189L12.3251 3.12403L12.4144 3.13004L12.5036 3.13692L12.5929 3.14469L12.682 3.15333L12.7712 3.16286L12.8602 3.17326L12.9493 3.18454L13.0382 3.1967L13.1271 3.20973L13.2158 3.22365L13.3045 3.23845L13.3931 3.25412L13.4816 3.27067L13.5699 3.28809L13.6581 3.3064L13.7462 3.32557L13.8341 3.34562L13.9218 3.36653L14.0094 3.38832L14.0968 3.41099L14.184 3.43452L14.271 3.45892L14.3578 3.48418L14.4444 3.5103L14.5307 3.53729L14.6168 3.56514L14.7028 3.59385L14.7884 3.62342L14.8737 3.65384L14.9589 3.6851L15.0437 3.71723L15.1282 3.7502L15.2125 3.78402L15.2964 3.81868L15.38 3.85417L15.4633 3.89051L15.5463 3.92769L15.6289 3.96569L15.7111 4.00452L15.7931 4.04418L15.8746 4.08467L15.9558 4.12597L16.0366 4.16809L16.117 4.21103L16.197 4.25477L16.2766 4.29932L16.3558 4.34468L16.4345 4.39083L16.5128 4.43778L16.5907 4.48553L16.6681 4.53403L16.745 4.58337L16.8215 4.63342L16.8975 4.68429L16.9731 4.73594L17.0481 4.7883L17.1226 4.84149L17.1966 4.89538L17.2701 4.95005L17.3431 5.00549L17.4155 5.06165L17.4874 5.11858L17.5588 5.17616L17.6296 5.23451L17.6998 5.29364L17.7694 5.35342L17.8385 5.41392L17.9071 5.47514L17.9749 5.53707L18.0422 5.59971L18.1089 5.66302L18.175 5.72698L18.2404 5.79166L18.3052 5.85701L18.3693 5.92306L18.4329 5.98972L18.4957 6.05704L18.5579 6.12502L18.6195 6.19366L18.6803 6.26291L18.7405 6.33281L18.8 6.40332L18.8588 6.47443L18.9169 6.54621L18.9743 6.61854L19.0309 6.69146L19.0869 6.765L19.1421 6.83914L19.1966 6.91383L19.2503 6.98912L19.3033 7.06497L19.3555 7.14131L19.407 7.21825L19.4577 7.29575L19.5077 7.37379L19.5568 7.45233L19.6052 7.53137L19.6528 7.61095L19.6996 7.69103L19.7456 7.77161L19.7908 7.85268L19.8352 7.93424L19.8787 8.01625L19.9215 8.09875L19.9634 8.18169L20.0044 8.26507L20.0447 8.34894L20.0841 8.4332L20.1227 8.5179L20.1604 8.60304L20.1972 8.68857L20.2332 8.77453L20.2683 8.86083L20.3026 8.94756L20.336 9.03463L20.3684 9.12213L20.4001 9.20992L20.4308 9.29813L20.4606 9.38663L20.4896 9.47551L20.5176 9.56466L20.5448 9.65415L20.571 9.74396L20.5963 9.83405L20.6207 9.92447L20.6442 10.0152L20.6667 10.1061L20.6884 10.1973L20.7091 10.2888L20.7289 10.3805L20.7478 10.4724L20.7657 10.5647L20.7827 10.6571L20.7987 10.7497L20.8138 10.8425L20.828 10.9355L20.8412 11.0287L20.8534 11.122L20.8647 11.2156L20.8751 11.3093L20.8844 11.4031L20.8928 11.497L20.9003 11.5911L20.9068 11.6854L20.9123 11.7797L20.9169 11.8741L20.9205 11.9686L20.9231 12.0632L20.9248 12.1578L20.9255 12.2525L20.9252 12.3473L20.924 12.4421L20.9217 12.537L20.9185 12.6318L20.9143 12.7267L20.9092 12.8215L20.903 12.9164L20.8959 13.0113L20.8878 13.1061L20.8787 13.2009L20.8687 13.2957L20.8577 13.3904L20.8457 13.485L20.8327 13.5796L20.8187 13.674L20.8038 13.7684L20.7879 13.8627L20.771 13.9569L20.7531 14.0509L20.7343 14.1448L20.7145 14.2386L20.6937 14.3322L20.6719 14.4257L20.6492 14.519L20.6255 14.6121L20.6008 14.705L20.5752 14.7977L20.5486 14.8903L20.5211 14.9825L20.4926 15.0747L20.463 15.1665L20.4326 15.2581L20.4013 15.3494L20.3689 15.4405L20.3356 15.5313L20.3014 15.6218L20.2662 15.712L20.2301 15.8019L20.193 15.8915L20.155 15.9807L20.1161 16.0697L20.0762 16.1583L20.0354 16.2466L19.9937 16.3344L19.951 16.422L19.9074 16.5091L19.863 16.5959L19.8176 16.6823L19.7713 16.7682L19.724 16.8538L19.676 16.9388L19.627 17.0235L19.5771 17.1078L19.5263 17.1916L19.4746 17.2749L19.4221 17.3578L19.3686 17.4402L19.3144 17.5221L19.2592 17.6035L19.2032 17.6844L19.1463 17.7648L19.0886 17.8446L19.03 17.924L18.9706 18.0028L18.9104 18.0811L18.8493 18.1587L18.7874 18.2359L18.7247 18.3125L18.6611 18.3884L18.5968 18.4638L18.5316 18.5386L18.4657 18.6128L18.3989 18.6864L18.3314 18.7594L18.2631 18.8317L18.194 18.9034L18.1242 18.9744L18.0535 19.0448L17.9822 19.1146L17.9101 19.1837L17.8372 19.2521L17.7637 19.3198L17.6893 19.3868L17.6143 19.4531L17.5385 19.5187L17.4621 19.5837L17.3849 19.6479L17.307 19.7113L17.2285 19.774L17.1493 19.836L17.0694 19.8972L16.9888 19.9577L16.9076 20.0174L16.8258 20.0764L16.7432 20.1345L16.6601 20.1919L16.5763 20.2485L16.4919 20.3043L16.4069 20.3593L16.3213 20.4135L16.2352 20.4669L16.1484 20.5195L16.061 20.5712L15.973 20.6221L15.8846 20.6721L15.7955 20.7213L15.706 20.7697L15.6158 20.8172L15.5252 20.8638L15.434 20.9096L15.3423 20.9545L15.2501 20.9985L15.1574 21.0417L15.0643 21.0839L14.9707 21.1253L14.8765 21.1657L14.782 21.2052L14.687 21.2439L14.5916 21.2816L14.4957 21.3184L14.3994 21.3544L14.3027 21.3893L14.2056 21.4233L14.1081 21.4564L14.0102 21.4886L13.9119 21.5197L13.8133 21.55L13.7144 21.5793L13.6151 21.6076L13.5154 21.635L13.4154 21.6615L13.3151 21.6869L13.2146 21.7114L13.1137 21.7349L13.0125 21.7574L12.911 21.779L12.8093 21.7995L12.7073 21.8191L12.6051 21.8377L12.5027 21.8552L12.4 21.8718L12.2971 21.8875L12.194 21.902L12.0908 21.9156L11.9873 21.9282L11.8836 21.9398L11.7798 21.9503L11.6758 21.9599L11.5717 21.9684L11.4675 21.976L11.3632 21.9825L11.2586 21.988L11.1541 21.9924L11.0494 21.9958L10.9446 21.9982L10.8399 21.9996L10.7349 22L10.63 21.9993L10.5251 21.9976L10.4201 21.9949L10.3151 21.9911L10.21 21.9864L10.105 21.9806L10.0001 21.9737L9.89506 21.9658L9.79016 21.9569L9.68526 21.947L9.58041 21.936L9.47567 21.924L9.37099 21.911L9.26636 21.8969L9.1619 21.8818L9.05749 21.8657L8.95325 21.8485L8.84912 21.8304L8.7451 21.8111L8.6413 21.7909L8.5376 21.7697L8.43413 21.7473L8.33077 21.724L8.22769 21.6997L8.12477 21.6743L8.02207 21.6479L7.91959 21.6206L7.81738 21.5922L7.7154 21.5627L7.61363 21.5323L7.5122 21.5009L7.41104 21.4684L7.31016 21.435L7.20955 21.4005L7.10927 21.365L7.00933 21.3286L6.90971 21.2912L6.81042 21.2527L6.71152 21.2133L6.61295 21.1729L6.51477 21.1314L6.41697 21.0891L6.31956 21.0457L6.22253 21.0014L6.12594 20.9561L6.02979 20.9098L5.93409 20.8626L5.83877 20.8144L5.74394 20.7653L5.64961 20.7152L5.55567 20.6642L5.46227 20.6122L5.36937 20.5593L5.27697 20.5055L5.18506 20.4507L5.09371 20.395L5.00285 20.3384L4.91254 20.2809L4.82283 20.2225L4.73362 20.1632L4.64502 20.1029L4.55702 20.0418L4.46958 19.9798L4.38274 19.9169L4.29652 19.8531L4.21091 19.7884L4.12594 19.7229L4.0416 19.6566L3.9579 19.5893L3.87486 19.5213L3.79249 19.4524L3.71079 19.3827L3.62977 19.3121L3.54944 19.2407L3.46981 19.1684L3.3909 19.0954L3.31269 19.0216L3.23521 18.947L3.15847 18.8715L3.08247 18.7954L3.00722 18.7184L2.93273 18.6407L2.85901 18.5622L2.78606 18.4829L2.7139 18.4029L2.64253 18.3221L2.57195 18.2407L2.50219 18.1585L2.43324 18.0756L2.36512 17.9919L2.29782 17.9076L2.23136 17.8226L2.16575 17.7369L2.10099 17.6505L2.03709 17.5634L1.97406 17.4757L1.9119 17.3873L1.85063 17.2983L1.79024 17.2087L1.73075 17.1184L1.67217 17.0275L1.61449 16.936L1.55772 16.8439L1.50188 16.7512L1.44697 16.6578L1.393 16.564L1.33996 16.4696L1.28788 16.3746L1.23675 16.279L1.18657 16.1829L1.13737 16.0863L1.08913 15.9892L1.04188 15.8916L0.995602 15.7934L0.950315 15.6948L0.906025 15.5956L0.862731 15.4961L0.820445 15.396L0.779172 15.2955L0.738907 15.1945L0.699666 15.0931L0.661455 14.9913L0.624268 14.889L0.588117 14.7864L0.553 14.6834L0.51893 14.58L0.485912 14.4762L0.45394 14.372L0.423031 14.2675L0.393179 14.1626L0.36439 14.0574L0.336669 13.9519L0.310022 13.8461L0.284449 13.7399L0.259961 13.6335L0.236552 13.5268L0.214228 13.4198L0.192994 13.3125L0.17285 13.2051L0.153802 13.0973L0.135856 12.9893L0.119006 12.8812L0.103262 12.7728L0.088625 12.6641L0.0751005 12.5553L0.0626829 12.4464L0.0513777 12.3373L0.0411902 12.228L0.0321207 12.1186L0.024169 12.009L0.0173407 11.8994L0.0116357 11.7896L0.00705409 11.6797L0.00359591 11.5697L0.00126656 11.4597L7.15532e-05 11.3496L0 11.2394ZM10.671 3.17184L10.6458 1.05423L10.622 1.05653L10.5125 1.06817L10.4033 1.08087L10.2942 1.09464L10.1855 1.10943L10.0769 1.12531L9.96841 1.14224L9.86026 1.16021L9.75222 1.17926L9.64473 1.1993L9.53707 1.22046L9.43019 1.24257L9.32314 1.26579L9.21664 1.29L9.11025 1.31529L9.00435 1.34155L8.89873 1.36886L8.79339 1.39719L8.68838 1.42655L8.58386 1.45688L8.47951 1.48827L8.37571 1.52062L8.27218 1.55401L8.16921 1.58832L8.0664 1.62371L7.96414 1.66005L7.86237 1.69735L7.76088 1.73567L7.65995 1.77492L7.55956 1.81512L7.45945 1.85635L7.35983 1.89852L7.26071 1.94165L7.16214 1.98569L7.06406 2.03069L6.96654 2.07659L6.86935 2.12351L6.77287 2.17128L6.67689 2.21998L6.58146 2.2696L6.48658 2.32014L6.39236 2.37154L6.29852 2.4239L6.20529 2.47716L6.11289 2.53118L6.02076 2.58626L5.92952 2.64207L5.83888 2.69875L5.74868 2.75635L5.65919 2.8148L5.57037 2.8741L5.48237 2.9341L5.3947 2.99516L5.30792 3.05688L5.22179 3.11945L5.13627 3.18287L5.05153 3.24705L4.96755 3.312L4.88407 3.37786L4.80152 3.44435L4.71958 3.51172L4.63841 3.57981L4.55796 3.6487L4.47833 3.71825L4.3993 3.78867L4.32117 3.85973L4.24371 3.9316L4.16714 4.00408L4.09128 4.07735L4.01625 4.15127L3.942 4.22593L3.86846 4.30136L3.79589 4.3773L3.72413 4.4539L3.65301 4.53139L3.58288 4.60938L3.5136 4.68792L3.44504 4.76729L3.37747 4.84715L3.31065 4.92772L3.24473 5.00885L3.17967 5.09063L3.11547 5.17297L3.0522 5.25585L2.98977 5.33934L2.92819 5.42349L2.86761 5.50803L2.80783 5.59328L2.74901 5.67897L2.6911 5.76521L2.63405 5.852L2.57797 5.93928L2.52281 6.02701L2.46858 6.11528L2.41531 6.204L2.36292 6.29326L2.31147 6.38303L2.26103 6.47311L2.2115 6.5637L2.16291 6.65478L2.11531 6.74624L2.06865 6.83815L2.02299 6.93038L1.97828 7.02306L1.93456 7.11612L1.89179 7.20962L1.85003 7.30339L1.80922 7.39761L1.76941 7.49215L1.73061 7.58698L1.69278 7.68218L1.65595 7.77771L1.62013 7.87352L1.5853 7.96966L1.5515 8.06602L1.51867 8.16277L1.48687 8.25974L1.45608 8.35697L1.42631 8.45438L1.39753 8.55217L1.36979 8.65007L1.34307 8.74824L1.31736 8.84658L1.29267 8.9452L1.26902 9.04392L1.24638 9.14287L1.22478 9.24198L1.2042 9.34126L1.18465 9.44064L1.16612 9.54019L1.14863 9.63985L1.13217 9.73967L1.11675 9.83955L1.10236 9.93954L1.089 10.0396L1.07667 10.1398L1.06537 10.24L1.05511 10.3403L1.04589 10.4406L1.0377 10.541L1.03054 10.6414L1.02441 10.7418L1.01932 10.8422L1.01526 10.9426L1.01223 11.043L1.01024 11.1434L1.00927 11.2437L1.00934 11.344L1.01043 11.4442L1.01255 11.5444L1.01569 11.6445L1.01986 11.7445L1.02506 11.8445L1.03127 11.9442L1.03851 12.044L1.04676 12.1435L1.05603 12.2429L1.06631 12.3423L1.07761 12.4414L1.08992 12.5404L1.10324 12.6392L1.11756 12.7378L1.13289 12.8362L1.14921 12.9344L1.16654 13.0324L1.18486 13.1302L1.20417 13.2277L1.22448 13.3251L1.24577 13.4221L1.26804 13.5189L1.2913 13.6154L1.31553 13.7117L1.34074 13.8076L1.3669 13.9032L1.39405 13.9986L1.42216 14.0936L1.45122 14.1883L1.48124 14.2827L1.51221 14.3767L1.54413 14.4704L1.57699 14.5637L1.61079 14.6566L1.64552 14.7491L1.68119 14.8413L1.71777 14.933L1.75528 15.0244L1.79371 15.1153L1.83305 15.2058L1.8733 15.2959L1.91444 15.3855L1.95648 15.4747L1.99942 15.5634L2.04324 15.6516L2.08794 15.7394L2.13351 15.8267L2.17996 15.9135L2.22727 15.9998L2.27544 16.0855L2.32446 16.1708L2.37433 16.2555L2.42505 16.3397L2.47657 16.4233L2.52896 16.5064L2.58215 16.5889L2.63617 16.6709L2.691 16.7523L2.74663 16.8331L2.80305 16.9134L2.86028 16.993L2.91828 17.0721L2.97707 17.1505L3.03661 17.2283L3.09695 17.3054L3.15801 17.3819L3.21983 17.4578L3.28242 17.5331L3.34571 17.6077L3.40976 17.6816L3.47451 17.7549L3.54 17.8275L3.60618 17.8994L3.67305 17.9706L3.74063 18.0411L3.80888 18.111L3.87784 18.1801L3.94744 18.2484L4.01773 18.3162L4.08864 18.3831L4.16022 18.4494L4.23245 18.5149L4.3053 18.5796L4.37873 18.6436L4.45284 18.7068L4.52756 18.7693L4.60278 18.831L4.67872 18.892L4.75515 18.9521L4.83219 19.0115L4.90978 19.0701L4.98798 19.128L5.06667 19.1849L5.14591 19.2411L5.22565 19.2965L5.30599 19.3511L5.38677 19.4049L5.46816 19.4578L5.54994 19.51L5.63226 19.5612L5.71509 19.6117L5.79829 19.6613L5.88205 19.7101L5.96619 19.758L6.05083 19.8051L6.13585 19.8513L6.22137 19.8967L6.30722 19.9412L6.39351 19.9849L6.48024 20.0276L6.56736 20.0695L6.6548 20.1105L6.74264 20.1507L6.8308 20.1899L6.9194 20.2283L7.00828 20.2657L7.09754 20.3024L7.18708 20.3381L7.27695 20.3728L7.36715 20.4068L7.45757 20.4398L7.54832 20.4718L7.63941 20.503L7.73071 20.5333L7.82228 20.5627L7.91402 20.5911L8.00615 20.6187L8.09839 20.6453L8.1909 20.671L8.28364 20.6958L8.37653 20.7197L8.46965 20.7426L8.56288 20.7646L8.65638 20.7857L8.75 20.8058L8.84372 20.8251L8.93767 20.8434L9.03172 20.8608L9.12589 20.8772L9.22016 20.8927L9.31455 20.9073L9.40904 20.921L9.50365 20.9337L9.59825 20.9455L9.69297 20.9563L9.78774 20.9662L9.88256 20.9752L9.97744 20.9833L10.0723 20.9904L10.1672 20.9966L10.2621 21.0019L10.357 21.0061L10.4519 21.0096L10.5468 21.012L10.6417 21.0135L10.7364 21.0141L10.8312 21.0138L10.9259 21.0125L11.0205 21.0104L11.1151 21.0072L11.2096 21.0032L11.304 20.9983L11.3982 20.9924L11.4923 20.9856L11.5864 20.9779L11.6803 20.9693L11.774 20.9597L11.8676 20.9493L11.961 20.938L12.0543 20.9257L12.1474 20.9125L12.2403 20.8984L12.3329 20.8834L12.4255 20.8675L12.5177 20.8508L12.6098 20.8331L12.7016 20.8146L12.7931 20.7951L12.8844 20.7748L12.9755 20.7536L13.0663 20.7315L13.1567 20.7085L13.2469 20.6847L13.3368 20.66L13.4265 20.6344L13.5157 20.608L13.6047 20.5807L13.6933 20.5526L13.7816 20.5235L13.8696 20.4937L13.9571 20.463L14.0444 20.4315L14.1312 20.3991L14.2177 20.3659L14.3037 20.3319L14.3894 20.2971L14.4746 20.2614L14.5595 20.2249L14.6439 20.1876L14.7278 20.1496L14.8114 20.1107L14.8945 20.071L14.9771 20.0306L15.0593 19.9893L15.141 19.9472L15.2222 19.9044L15.303 19.8608L15.3832 19.8165L15.4629 19.7714L15.5421 19.7256L15.6209 19.6789L15.699 19.6316L15.7767 19.5835L15.8538 19.5347L15.9303 19.4852L16.0064 19.4349L16.0819 19.3839L16.1566 19.3323L16.2309 19.2799L16.3047 19.2268L16.3778 19.1731L16.4504 19.1185L16.5222 19.0635L16.5936 19.0076L16.6643 18.9512L16.7343 18.8941L16.8039 18.8363L16.8727 18.7778L16.9408 18.7188L17.0084 18.6591L17.0753 18.5988L17.1415 18.5379L17.2071 18.4763L17.2719 18.4142L17.3362 18.3514L17.3997 18.288L17.4626 18.2241L17.5247 18.1596L17.5861 18.0946L17.6468 18.0291L17.7069 17.9627L17.7662 17.8961L17.8248 17.8287L17.8827 17.761L17.9398 17.6926L17.9962 17.6238L18.0518 17.5545L18.1068 17.4846L18.1609 17.4143L18.2144 17.3434L18.267 17.2721L18.3189 17.2003L18.3701 17.1279L18.4203 17.0553L18.4699 16.9821L18.5187 16.9086L18.5667 16.8345L18.614 16.76L18.6604 16.6852L18.706 16.6099L18.7508 16.5341L18.7948 16.4581L18.838 16.3816L18.8805 16.3047L18.922 16.2276L18.9628 16.15L19.0028 16.072L19.0418 15.9939L19.0801 15.9152L19.1176 15.8363L19.1543 15.7571L19.1901 15.6775L19.225 15.5977L19.2591 15.5176L19.2924 15.4371L19.3249 15.3563L19.3564 15.2755L19.3871 15.1941L19.417 15.1127L19.4461 15.0309L19.4743 14.949L19.5016 14.8668L19.528 14.7845L19.5536 14.7017L19.5783 14.619L19.6021 14.536L19.6251 14.4529L19.6473 14.3695L19.6685 14.286L19.6889 14.2023L19.7084 14.1184L19.7271 14.0345L19.7449 13.9504L19.7617 13.8663L19.7777 13.7818L19.7929 13.6975L19.8071 13.6129L19.8205 13.5283L19.833 13.4436L19.8447 13.3588L19.8554 13.2741L19.8653 13.1891L19.8743 13.1043L19.8825 13.0193L19.8897 12.9344L19.8961 12.8493L19.9016 12.7645L19.9062 12.6794L19.91 12.5942L19.9128 12.5093L19.9149 12.4246L19.916 12.3395L19.9162 12.2545L19.9156 12.1697L19.9141 12.085L19.9118 12.0002L19.9085 11.9158L19.9044 11.831L19.8995 11.7467L19.8937 11.6623L19.887 11.5782L19.8794 11.494L19.8711 11.4101L19.8618 11.3261L19.8517 11.2425L19.8407 11.1589L19.829 11.0756L19.8162 10.9922L19.8027 10.9092L19.7884 10.8265L19.7732 10.7437L19.7571 10.6612L19.7403 10.579L19.7226 10.4968L19.7041 10.4152L19.6847 10.3335L19.6646 10.2523L19.6435 10.171L19.6217 10.0903L19.599 10.0097L19.5756 9.92931L19.5514 9.8494L19.5263 9.76976L19.5004 9.69017L19.4738 9.61119L19.4462 9.53227L19.418 9.45384L19.389 9.37557L19.3592 9.29786L19.3285 9.22025L19.2971 9.14309L19.265 9.06642L19.2321 8.99008L19.1983 8.91385L19.164 8.83834L19.1287 8.76287L19.0928 8.68813L19.0561 8.61366L19.0186 8.53946L18.9805 8.46587L18.9416 8.39261L18.9019 8.31968L18.8617 8.24747L18.8206 8.17542L18.7788 8.10398L18.7363 8.03286L18.6932 7.96246L18.6492 7.89223L18.6047 7.82265L18.5594 7.7534L18.5135 7.68476L18.4669 7.61673L18.4196 7.54897L18.3716 7.48181L18.323 7.41515L18.2737 7.3491L18.2239 7.28343L18.1733 7.21842L18.1221 7.15385L18.0703 7.08988L18.0179 7.02647L17.9648 6.96355L17.9111 6.90123L17.8569 6.83947L17.8021 6.77831L17.7466 6.7177L17.6905 6.65758L17.634 6.59829L17.5766 6.53933L17.519 6.4812L17.4607 6.4235L17.4019 6.36652L17.3423 6.30998L17.2825 6.25432L17.2219 6.1991L17.1608 6.14454L17.0994 6.0907L17.0374 6.03746L16.9747 5.98471L16.9117 5.93274L16.8482 5.88142L16.7841 5.83077L16.7196 5.78072L16.6547 5.73149L16.5891 5.68265L16.5233 5.63475L16.457 5.58745L16.3901 5.54075L16.323 5.49483L16.2551 5.44945L16.1873 5.40501L16.1187 5.36107L16.0499 5.31789L15.9805 5.27538L15.9108 5.23358L15.8408 5.19255L15.7704 5.15229L15.6995 5.11252L15.6285 5.07369L15.5569 5.03547L15.485 4.99801L15.4129 4.96133L15.3403 4.9253L15.2675 4.88999L15.1943 4.85551L15.1208 4.82168L15.0471 4.78868L14.9731 4.75634L14.8964 4.72378L14.8242 4.69403L14.7492 4.66389L14.6742 4.63468L14.5987 4.60603L14.5231 4.57831L14.4472 4.55125L14.3712 4.52501L14.2948 4.49944L14.2184 4.47474L14.1416 4.45076L14.0647 4.42756L13.9877 4.40517L13.9104 4.38348L13.8328 4.36253L13.7553 4.34244L13.6777 4.32312L13.5995 4.3045L13.5217 4.28674L13.4434 4.26969L13.3652 4.25346L13.2866 4.23798L13.2082 4.2233L13.1296 4.20939L13.051 4.19628L12.972 4.1839L12.8933 4.17235L12.8144 4.16156L12.7354 4.15154L12.6563 4.14231L12.5773 4.13388L12.4983 4.12621L12.4191 4.11932L12.3399 4.11321L12.2607 4.10788L12.1817 4.10334L12.1026 4.09957L12.0232 4.09657L11.9443 4.09436L11.8653 4.09292L11.7862 4.09226L11.7071 4.09237L11.6912 4.09255L11.7162 6.19476L11.7611 6.19454L11.8188 6.19487L11.8766 6.19575L11.9344 6.19724L11.9923 6.19927L12.0502 6.20191L12.108 6.2051L12.166 6.20884L12.2239 6.21318L12.2818 6.21808L12.3398 6.22358L12.3976 6.22963L12.4556 6.23629L12.5135 6.24349L12.5713 6.25124L12.6291 6.25966L12.6869 6.26857L12.7446 6.27808L12.8023 6.2882L12.8599 6.29887L12.9174 6.31015L12.9749 6.32197L13.0323 6.33435L13.0897 6.34733L13.1469 6.36091L13.204 6.37505L13.261 6.38973L13.318 6.40503L13.3748 6.42087L13.4315 6.43731L13.4881 6.4543L13.5446 6.47185L13.6009 6.49L13.657 6.5087L13.7131 6.528L13.7689 6.54786L13.8247 6.56826L13.8802 6.58922L13.9356 6.61078L13.9907 6.63289L14.0457 6.65555L14.1005 6.67881L14.1552 6.70257L14.2096 6.72694L14.2638 6.7518L14.3177 6.77726L14.3715 6.80328L14.425 6.82984L14.4784 6.85696L14.5314 6.88462L14.5842 6.91278L14.6368 6.94155L14.6892 6.97081L14.7412 7.00062L14.793 7.03098L14.8446 7.06189L14.8958 7.09329L14.9467 7.12525L14.9974 7.15775L15.0477 7.19075L15.0978 7.22425L15.1476 7.25829L15.197 7.29289L15.2462 7.32792L15.2949 7.36351L15.3434 7.39964L15.3916 7.43622L15.4393 7.47334L15.4868 7.51096L15.5339 7.54902L15.5806 7.58764L15.627 7.62674L15.673 7.66628L15.7187 7.70632L15.764 7.74686L15.8088 7.78789L15.8533 7.82936L15.8974 7.87133L15.941 7.91373L15.9843 7.95663L16.0272 7.99997L16.0697 8.0438L16.1118 8.08802L16.1533 8.13274L16.1945 8.17789L16.2353 8.22349L16.2756 8.26947L16.3154 8.31594L16.3549 8.3628L16.3939 8.4101L16.4324 8.45784L16.4704 8.50597L16.508 8.55453L16.5451 8.60349L16.5817 8.65287L16.6178 8.70259L16.6535 8.75276L16.6886 8.8033L16.7233 8.85423L16.7575 8.90554L16.7911 8.95719L16.8243 9.00928L16.8569 9.06169L16.8891 9.11443L16.9207 9.16756L16.9517 9.22108L16.9823 9.27487L17.0123 9.32904L17.0418 9.38355L17.0707 9.43839L17.0992 9.49355L17.127 9.54904L17.1543 9.60487L17.181 9.66097L17.2072 9.71734L17.2328 9.7741L17.2579 9.83109L17.2824 9.8884L17.3063 9.94598L17.3296 10.0038L17.3524 10.062L17.3745 10.1203L17.3961 10.179L17.4171 10.2379L17.4375 10.2971L17.4573 10.3565L17.4765 10.4162L17.4951 10.476L17.5131 10.5361L17.5305 10.5965L17.5473 10.657L17.5634 10.7178L17.579 10.7787L17.5939 10.8399L17.6083 10.9012L17.622 10.9628L17.635 11.0245L17.6475 11.0863L17.6593 11.1484L17.6704 11.2106L17.681 11.273L17.6909 11.3355L17.7002 11.3982L17.7088 11.461L17.7168 11.5239L17.7242 11.587L17.7308 11.6502L17.7369 11.7134L17.7423 11.7768L17.7471 11.8403L17.7512 11.9039L17.7546 11.9675L17.7574 12.0312L17.7596 12.0951L17.7611 12.159L17.7619 12.2229L17.7621 12.2869L17.7616 12.351L17.7604 12.415L17.7586 12.4792L17.7561 12.5434L17.753 12.6075L17.7492 12.6717L17.7447 12.7359L17.7396 12.8001L17.7338 12.8643L17.7273 12.9285L17.7202 12.9926L17.7124 13.0568L17.7039 13.1209L17.6948 13.1849L17.685 13.249L17.6745 13.3129L17.6634 13.3768L17.6515 13.4407L17.6391 13.5045L17.6259 13.5682L17.6121 13.6318L17.5977 13.6953L17.5825 13.7587L17.5667 13.822L17.5503 13.8853L17.5331 13.9484L17.5154 14.0114L17.4969 14.0742L17.4778 14.1369L17.458 14.1995L17.4376 14.2619L17.4165 14.3241L17.3947 14.3862L17.3724 14.4481L17.3493 14.5098L17.3255 14.5714L17.3012 14.6327L17.2762 14.6939L17.2505 14.7549L17.2242 14.8156L17.1973 14.8762L17.1697 14.9365L17.1415 14.9966L17.1126 15.0564L17.0831 15.116L17.0529 15.1754L17.0221 15.2345L16.9907 15.2933L16.9587 15.3519L16.926 15.4102L16.8928 15.4682L16.8589 15.5259L16.8243 15.5834L16.7892 15.6405L16.7535 15.6973L16.7171 15.7538L16.6801 15.81L16.6425 15.8658L16.6043 15.9214L16.5656 15.9766L16.5262 16.0315L16.4862 16.086L16.4457 16.1401L16.4045 16.1939L16.3628 16.2473L16.3205 16.3003L16.2776 16.353L16.2342 16.4053L16.1902 16.4572L16.1456 16.5087L16.1004 16.5598L16.0547 16.6104L16.0084 16.6607L15.9616 16.7105L15.9143 16.76L15.8664 16.8089L15.818 16.8575L15.769 16.9056L15.7196 16.9533L15.6695 17.0004L15.619 17.0471L15.568 17.0934L15.5164 17.1392L15.4643 17.1845L15.4117 17.2294L15.3587 17.2737L15.3051 17.3176L15.2511 17.361L15.1965 17.4038L15.1415 17.4462L15.0861 17.488L15.0301 17.5293L14.9737 17.5701L14.9169 17.6105L14.8595 17.6502L14.8018 17.6894L14.7435 17.728L14.6849 17.7662L14.6258 17.8037L14.5663 17.8407L14.5063 17.8771L14.446 17.9131L14.3852 17.9484L14.3241 17.9831L14.2625 18.0172L14.2006 18.0508L14.1383 18.0838L14.0755 18.1162L14.0124 18.148L13.949 18.1792L13.8852 18.2098L13.821 18.2398L13.7564 18.2692L13.6916 18.298L13.6264 18.3261L13.5608 18.3536L13.4949 18.3805L13.4287 18.4068L13.3622 18.4324L13.2954 18.4574L13.2283 18.4818L13.1609 18.5055L13.0931 18.5286L13.0252 18.551L12.9569 18.5727L12.8884 18.5938L12.8196 18.6143L12.7506 18.6341L12.6813 18.6532L12.6117 18.6716L12.542 18.6894L12.472 18.7065L12.4018 18.7229L12.3313 18.7387L12.2607 18.7537L12.1898 18.7681L12.1188 18.7818L12.0476 18.7948L11.9762 18.8071L11.9046 18.8187L11.8329 18.8296L11.761 18.8399L11.6889 18.8494L11.6167 18.8582L11.5444 18.8663L11.4719 18.8737L11.3993 18.8805L11.3266 18.8864L11.2538 18.8917L11.1809 18.8963L11.1079 18.9001L11.0348 18.9033L10.9617 18.9057L10.8884 18.9074L10.8151 18.9084L10.7417 18.9087L10.6683 18.9082L10.5949 18.907L10.5214 18.9051L10.4479 18.9025L10.3744 18.8992L10.3008 18.8951L10.2273 18.8903L10.1537 18.8848L10.0802 18.8785L10.0067 18.8715L9.93317 18.8638L9.85971 18.8554L9.78631 18.8463L9.7129 18.8364L9.63961 18.8258L9.56637 18.8145L9.49318 18.8024L9.42006 18.7896L9.34704 18.7761L9.27413 18.7619L9.20133 18.7469L9.12858 18.7312L9.05601 18.7148L8.98354 18.6976L8.91118 18.6798L8.83899 18.6612L8.7669 18.6419L8.69499 18.6218L8.62329 18.6011L8.5517 18.5797L8.48028 18.5575L8.40908 18.5346L8.3381 18.511L8.26723 18.4867L8.19663 18.4616L8.12625 18.4359L8.05604 18.4094L7.98611 18.3823L7.91639 18.3544L7.8469 18.3258L7.77768 18.2966L7.70873 18.2667L7.64007 18.236L7.57162 18.2046L7.5035 18.1726L7.43566 18.1399L7.36809 18.1064L7.3008 18.0723L7.23389 18.0376L7.16726 18.0021L7.10096 17.966L7.03499 17.9292L6.96935 17.8917L6.90404 17.8535L6.83911 17.8147L6.77452 17.7752L6.71031 17.7351L6.64649 17.6943L6.58305 17.6529L6.52 17.6108L6.45733 17.568L6.39505 17.5247L6.33321 17.4807L6.27176 17.436L6.21074 17.3908L6.15012 17.3449L6.08998 17.2983L6.03029 17.2512L5.97104 17.2034L5.91223 17.1551L5.85385 17.106L5.79598 17.0565L5.7386 17.0063L5.68166 16.9555L5.62522 16.9041L5.56932 16.8522L5.51387 16.7997L5.45891 16.7466L5.40451 16.6929L5.35065 16.6387L5.29729 16.5838L5.24443 16.5285L5.19211 16.4726L5.1404 16.4161L5.08919 16.3591L5.03853 16.3016L4.98847 16.2435L4.93891 16.1849L4.89001 16.1258L4.84161 16.0661L4.79387 16.006L4.74667 15.9453L4.70009 15.8842L4.65411 15.8225L4.60868 15.7604L4.56391 15.6978L4.5198 15.6347L4.47624 15.5711L4.43334 15.5071L4.39108 15.4426L4.34946 15.3777L4.30847 15.3123L4.26814 15.2464L4.22846 15.1802L4.18944 15.1135L4.15108 15.0463L4.11339 14.9789L4.07637 14.9109L4.04003 14.8426L4.00437 14.7738L3.9694 14.7047L3.93512 14.6352L3.90153 14.5653L3.86865 14.495L3.83646 14.4244L3.80499 14.3534L3.77423 14.2821L3.74418 14.2103L3.71485 14.1384L3.68626 14.066L3.65838 13.9933L3.63124 13.9203L3.60483 13.8471L3.57916 13.7734L3.55424 13.6996L3.53006 13.6254L3.50663 13.5509L3.48395 13.4762L3.46203 13.4012L3.44087 13.3259L3.42047 13.2504L3.40083 13.1746L3.38197 13.0987L3.36387 13.0225L3.34655 12.946L3.33 12.8693L3.31424 12.7925L3.29925 12.7154L3.28505 12.6382L3.27164 12.5607L3.25901 12.4831L3.24718 12.4054L3.23614 12.3274L3.2259 12.2493L3.21645 12.1711L3.20781 12.0927L3.19996 12.0142L3.19292 11.9355L3.18668 11.8568L3.18125 11.778L3.17663 11.699L3.17282 11.62L3.16982 11.5409L3.16763 11.4617L3.16625 11.3824L3.16569 11.303L3.16595 11.2237L3.16702 11.1443L3.16891 11.0648L3.17162 10.9854L3.17515 10.9058L3.1795 10.8264L3.18466 10.7468L3.19065 10.6674L3.19746 10.5878L3.20509 10.5084L3.21355 10.4289L3.22282 10.3496L3.23292 10.2702L3.24384 10.1909L3.25558 10.1116L3.26815 10.0325L3.28153 9.9534L3.29574 9.87442L3.31077 9.7955L3.32662 9.71668L3.34328 9.63803L3.36077 9.55944L3.37907 9.48101L3.39819 9.40269L3.41813 9.32453L3.43888 9.24654L3.46044 9.16866L3.48282 9.09101L3.50602 9.01351L3.53002 8.93618L3.55483 8.85901L3.58045 8.78213L3.60687 8.7054L3.6341 8.62889L3.66213 8.55261L3.69096 8.47654L3.72058 8.40075L3.75101 8.32518L3.78222 8.24989L3.81423 8.17487L3.84703 8.10007L3.88062 8.0256L3.91499 7.9514L3.95015 7.87749L3.98608 7.80389L4.02279 7.73063L4.06027 7.65765L4.09853 7.58505L4.13755 7.51272L4.17734 7.44078L4.21789 7.36917L4.2592 7.29789L4.30126 7.22705L4.34408 7.15654L4.38765 7.08642L4.43197 7.01668L4.47701 6.94732L4.52283 6.87841L4.5693 6.80988L4.61661 6.74179L4.66457 6.67408L4.71325 6.60682L4.7627 6.54005L4.81281 6.47366L4.86369 6.40777L4.91524 6.34232L4.96749 6.27737L5.02041 6.21291L5.07405 6.14889L5.1284 6.08536L5.18341 6.02233L5.23908 5.95985L5.29547 5.89787L5.35247 5.83638L5.41018 5.77544L5.46855 5.71499L5.52753 5.65515L5.58716 5.59581L5.64746 5.53701L5.70842 5.47882L5.76999 5.42113L5.83216 5.36409L5.89499 5.30755L5.95843 5.25167L6.02241 5.19634L6.08706 5.14162L6.15232 5.0875L6.21812 5.03399L6.28453 4.98107L6.35155 4.92882L6.41912 4.87718L6.48724 4.82619L6.55596 4.77582L6.62518 4.7261L6.69495 4.67703L6.76532 4.62863L6.8362 4.58089L6.90756 4.53387L6.97954 4.48745L7.05195 4.44174L7.12491 4.39672L7.19837 4.35239L7.27233 4.30875L7.34672 4.26582L7.42167 4.22359L7.49706 4.18207L7.57288 4.14127L7.64921 4.1012L7.72597 4.06185L7.80317 4.02324L7.88082 3.98536L7.9589 3.94822L8.03743 3.91184L8.11634 3.8762L8.19569 3.84131L8.27543 3.80719L8.35555 3.77383L8.43606 3.74124L8.5169 3.70942L8.59818 3.67838L8.67979 3.64812L8.76178 3.61864L8.84411 3.58995L8.92676 3.56206L9.00975 3.53496L9.09301 3.50866L9.17666 3.48317L9.26058 3.45848L9.34483 3.4346L9.42931 3.41153L9.51411 3.38929L9.59919 3.36786L9.68454 3.34726L9.77012 3.32748L9.85597 3.30853L9.94204 3.29041L10.0283 3.27313L10.1149 3.25669L10.2016 3.24109L10.2886 3.22633L10.3757 3.21241L10.4631 3.19934L10.5506 3.18713L10.6383 3.17576L10.671 3.17184ZM10.708 6.28985L10.6827 4.16454L10.6109 4.17457L10.5336 4.18614L10.4563 4.19847L10.3795 4.21151L10.3026 4.22535L10.226 4.2399L10.1496 4.2552L10.0735 4.27121L9.9976 4.28798L9.92183 4.30549L9.84628 4.32372L9.77105 4.34267L9.69589 4.36239L9.62369 4.38207L9.54676 4.4039L9.47248 4.42574L9.39852 4.44829L9.32495 4.4715L9.25155 4.49548L9.17842 4.52017L9.10562 4.54553L9.03321 4.57154L8.96107 4.59833L8.88926 4.62572L8.81773 4.65388L8.74675 4.68264L8.67577 4.71218L8.60534 4.74232L8.53524 4.77312L8.46563 4.80458L8.39619 4.83675L8.32714 4.86959L8.25869 4.90298L8.19035 4.93713L8.12273 4.97183L8.05522 5.00731L7.98837 5.04322L7.92162 5.08002L7.85554 5.1172L7.7899 5.15509L7.72459 5.19365L7.65978 5.23275L7.5953 5.27257L7.53147 5.31283L7.46793 5.35381L7.40498 5.39533L7.34248 5.43741L7.28042 5.48014L7.21875 5.52348L7.15779 5.56721L7.09716 5.6117L7.03703 5.65669L6.97744 5.70223L6.91841 5.74827L6.85977 5.79496L6.80178 5.8421L6.74429 5.88978L6.68724 5.93813L6.63091 5.9868L6.57496 6.03614L6.51956 6.08597L6.46477 6.13624L6.41058 6.187L6.35678 6.23837L6.30375 6.29007L6.25122 6.34232L6.19918 6.39512L6.1478 6.44831L6.09698 6.50204L6.04675 6.55616L5.99714 6.61072L5.94807 6.66578L5.89956 6.72133L5.85187 6.77715L5.80462 6.83353L5.75798 6.89034L5.712 6.94749L5.66668 7.00502L5.62186 7.0631L5.57775 7.12145L5.53424 7.18025L5.4914 7.23943L5.44917 7.29899L5.40765 7.35883L5.36673 7.41911L5.32642 7.47978L5.28677 7.54077L5.24784 7.60204L5.20957 7.6637L5.1719 7.72579L5.1349 7.78806L5.09861 7.8507L5.06293 7.91367L5.02801 7.97681L4.99371 8.04039L4.96 8.1043L4.92713 8.16832L4.89486 8.23278L4.86331 8.29746L4.83241 8.36231L4.80224 8.42754L4.77272 8.49294L4.74392 8.55861L4.71578 8.62449L4.68841 8.6906L4.66171 8.75693L4.63566 8.82354L4.61033 8.89031L4.58577 8.95724L4.56181 9.02445L4.53869 9.09172L4.51616 9.15926L4.49441 9.22696L4.47332 9.29483L4.453 9.36281L4.43334 9.43096L4.41446 9.49921L4.39623 9.56769L4.37874 9.63622L4.36198 9.70491L4.34593 9.77372L4.33059 9.84258L4.31597 9.9116L4.30209 9.98068L4.28891 10.0498L4.27646 10.1191L4.26473 10.1884L4.25371 10.2578L4.24343 10.3272L4.23386 10.3967L4.22501 10.4662L4.21689 10.5358L4.20948 10.6054L4.20279 10.675L4.19683 10.7446L4.19159 10.8142L4.18706 10.8839L4.18325 10.9535L4.18016 11.0231L4.17779 11.0927L4.17614 11.1622L4.1752 11.2317L4.17497 11.3012L4.17546 11.3706L4.17667 11.44L4.17859 11.5093L4.18121 11.5785L4.18454 11.6477L4.18859 11.7168L4.19333 11.7857L4.19879 11.8546L4.20495 11.9233L4.21181 11.992L4.21937 12.0605L4.22762 12.1289L4.23658 12.1972L4.24623 12.2653L4.25658 12.3334L4.26761 12.4011L4.27933 12.4688L4.29174 12.5364L4.30483 12.6036L4.31861 12.6708L4.33306 12.7378L4.3482 12.8046L4.36399 12.8711L4.38048 12.9375L4.39763 13.0036L4.41545 13.0696L4.43389 13.1353L4.45306 13.2008L4.47283 13.266L4.49331 13.331L4.5144 13.3958L4.53615 13.4603L4.55857 13.5244L4.58158 13.5884L4.60526 13.6521L4.6296 13.7155L4.65455 13.7786L4.6801 13.8414L4.70631 13.9039L4.73313 13.9661L4.76061 14.028L4.78864 14.0896L4.81733 14.1508L4.84662 14.2118L4.87647 14.2724L4.90698 14.3326L4.93803 14.3926L4.9697 14.4521L5.00197 14.5113L5.03479 14.5702L5.06821 14.6286L5.10219 14.6867L5.13677 14.7444L5.1719 14.8018L5.20759 14.8587L5.24382 14.9152L5.28066 14.9714L5.31794 15.0271L5.35588 15.0825L5.39426 15.1374L5.43325 15.1919L5.47273 15.2459L5.51277 15.2996L5.5533 15.3528L5.59438 15.4056L5.6359 15.4579L5.67797 15.5097L5.72054 15.5611L5.7636 15.6121L5.80716 15.6626L5.85121 15.7127L5.8957 15.7622L5.94069 15.8113L5.98612 15.8599L6.03205 15.908L6.07842 15.9556L6.12528 16.0027L6.17253 16.0494L6.22027 16.0955L6.26845 16.1412L6.31697 16.1863L6.36603 16.2309L6.41543 16.275L6.46526 16.3186L6.51554 16.3616L6.5662 16.4041L6.61725 16.4462L6.66868 16.4876L6.7205 16.5285L6.7727 16.5689L6.82529 16.6087L6.87827 16.648L6.93152 16.6867L6.98515 16.7249L7.03917 16.7625L7.09352 16.7996L7.14826 16.8361L7.20327 16.872L7.25862 16.9074L7.31429 16.9422L7.37024 16.9764L7.42652 17.0101L7.48312 17.0431L7.53995 17.0756L7.59717 17.1075L7.65455 17.1388L7.71231 17.1695L7.7703 17.1997L7.82851 17.2291L7.88704 17.2581L7.94585 17.2864L8.00483 17.3142L8.06403 17.3413L8.12356 17.3679L8.18319 17.3938L8.24311 17.4191L8.30324 17.4439L8.36359 17.4679L8.42406 17.4914L8.4848 17.5143L8.5457 17.5366L8.60677 17.5583L8.668 17.5793L8.72946 17.5997L8.79102 17.6195L8.85275 17.6387L8.91465 17.6572L8.97666 17.6751L9.03877 17.6925L9.10105 17.7091L9.16344 17.7252L9.22594 17.7406L9.28856 17.7554L9.35128 17.7696L9.41411 17.7832L9.47699 17.7961L9.53994 17.8084L9.60304 17.8201L9.66609 17.8311L9.72931 17.8416L9.79253 17.8513L9.8558 17.8605L9.91913 17.869L9.98246 17.8769L10.0458 17.8842L10.1092 17.8908L10.1727 17.8968L10.2361 17.9022L10.2995 17.907L10.363 17.9111L10.4264 17.9146L10.4897 17.9175L10.5532 17.9198L10.6165 17.9214L10.6798 17.9224L10.743 17.9228L10.8063 17.9226L10.8694 17.9217L10.9325 17.9203L10.9955 17.9182L11.0585 17.9155L11.1214 17.9121L11.1841 17.9082L11.2468 17.9037L11.3094 17.8985L11.3719 17.8927L11.4342 17.8863L11.4965 17.8793L11.5586 17.8718L11.6206 17.8636L11.6825 17.8548L11.7442 17.8454L11.8058 17.8354L11.8671 17.8248L11.9284 17.8136L11.9895 17.8018L12.0504 17.7895L12.1112 17.7765L12.1716 17.763L12.232 17.7489L12.2921 17.7342L12.3521 17.719L12.4119 17.7031L12.4714 17.6867L12.5307 17.6697L12.5898 17.6521L12.6486 17.634L12.7072 17.6153L12.7656 17.5961L12.8237 17.5763L12.8816 17.5559L12.9392 17.535L12.9965 17.5136L13.0535 17.4916L13.1103 17.469L13.1669 17.4459L13.2231 17.4223L13.279 17.3982L13.3347 17.3736L13.39 17.3484L13.445 17.3226L13.4998 17.2964L13.5541 17.2697L13.6082 17.2424L13.6619 17.2147L13.7154 17.1863L13.7684 17.1576L13.8211 17.1284L13.8736 17.0986L13.9255 17.0684L13.9772 17.0376L14.0286 17.0064L14.0794 16.9748L14.1301 16.9426L14.1802 16.91L14.2301 16.8769L14.2796 16.8433L14.3286 16.8093L14.3771 16.7749L14.4255 16.74L14.4733 16.7047L14.5208 16.6689L14.5678 16.6327L14.6143 16.5961L14.6606 16.559L14.7064 16.5215L14.7517 16.4836L14.7967 16.4452L14.8411 16.4065L14.8851 16.3674L14.9289 16.3278L14.9719 16.288L15.0147 16.2477L15.0569 16.207L15.0987 16.1659L15.14 16.1245L15.181 16.0827L15.2214 16.0405L15.2612 15.998L15.3007 15.9551L15.3398 15.9118L15.3782 15.8683L15.4163 15.8243L15.4538 15.7801L15.4908 15.7356L15.5274 15.6906L15.5635 15.6455L15.599 15.5999L15.6341 15.5541L15.6687 15.5079L15.7027 15.4614L15.7362 15.4148L15.7693 15.3677L15.8018 15.3204L15.8338 15.2728L15.8653 15.2249L15.8962 15.1769L15.9267 15.1285L15.9566 15.0798L15.986 15.031L16.0148 14.9819L16.0432 14.9324L16.0709 14.883L16.0982 14.8331L16.1249 14.7831L16.151 14.7328L16.1767 14.6822L16.2017 14.6318L16.2263 14.5807L16.2502 14.5298L16.2738 14.4784L16.2966 14.4271L16.319 14.3753L16.3408 14.3236L16.362 14.2717L16.3827 14.2196L16.4029 14.1673L16.4224 14.115L16.4415 14.0623L16.4599 14.0097L16.4778 13.9569L16.4951 13.9039L16.5119 13.8508L16.5282 13.7976L16.5438 13.7443L16.5589 13.6909L16.5734 13.6374L16.5874 13.5838L16.6008 13.5301L16.6136 13.4764L16.6259 13.4225L16.6375 13.3686L16.6487 13.3146L16.6592 13.2607L16.6693 13.2066L16.6787 13.1523L16.6875 13.0982L16.6959 13.044L16.7036 12.9897L16.7107 12.9356L16.7173 12.8813L16.7234 12.8268L16.7288 12.7728L16.7338 12.7183L16.7381 12.664L16.7419 12.6098L16.7451 12.5555L16.7478 12.5012L16.7499 12.447L16.7514 12.3927L16.7523 12.3387L16.7528 12.2845L16.7526 12.2304L16.752 12.1763L16.7507 12.1225L16.7489 12.0685L16.7465 12.0147L16.7436 11.9611L16.7401 11.9073L16.7361 11.8537L16.7316 11.8003L16.7265 11.7468L16.7208 11.6936L16.7146 11.6403L16.7079 11.5873L16.7006 11.5343L16.6928 11.4814L16.6844 11.4287L16.6755 11.3762L16.6661 11.3238L16.6562 11.2715L16.6456 11.2192L16.6346 11.1673L16.6231 11.1156L16.611 11.0639L16.5984 11.0123L16.5854 10.9611L16.5717 10.9098L16.5576 10.8589L16.543 10.8081L16.5278 10.7576L16.5122 10.7072L16.496 10.657L16.4794 10.6071L16.4623 10.5574L16.4445 10.5077L16.4265 10.4585L16.4078 10.4094L16.3887 10.3606L16.3691 10.3119L16.349 10.2634L16.3284 10.2154L16.3074 10.1675L16.2859 10.1199L16.2639 10.0726L16.2414 10.0254L16.2185 9.97849L16.1952 9.93201L16.1713 9.88564L16.1471 9.83972L16.1223 9.79407L16.0971 9.74848L16.0716 9.70343L16.0455 9.65855L16.019 9.61405L15.992 9.56973L15.9647 9.52589L15.9369 9.48216L15.9087 9.43893L15.8801 9.39598L15.8511 9.35335L15.8216 9.31095L15.7917 9.26898L15.7615 9.2274L15.7308 9.18599L15.6998 9.14507L15.6683 9.10442L15.6366 9.06422L15.6043 9.02423L15.5717 8.98469L15.5387 8.94547L15.5054 8.90659L15.4718 8.8682L15.4376 8.83003L15.4033 8.79235L15.3685 8.75496L15.3334 8.71811L15.2979 8.68142L15.2621 8.64528L15.2259 8.60937L15.1894 8.57401L15.1527 8.53902L15.1156 8.50437L15.0781 8.47011L15.0403 8.43634L15.0023 8.40295L14.9638 8.36984L14.9253 8.33739L14.8862 8.30511L14.847 8.27337L14.8074 8.24208L14.7676 8.21106L14.7275 8.18059L14.6872 8.15061L14.6465 8.12091L14.6055 8.0916L14.5644 8.06294L14.5228 8.03451L14.4813 8.00673L14.4394 7.97923L14.3972 7.95217L14.3548 7.92555L14.3123 7.89948L14.2693 7.87374L14.2263 7.84855L14.1829 7.82369L14.1396 7.79944L14.0959 7.77557L14.0519 7.75208L14.0078 7.72909L13.9636 7.70665L13.9191 7.68454L13.8744 7.66293L13.8296 7.64181L13.7847 7.62118L13.7394 7.60089L13.6942 7.5812L13.6487 7.56195L13.603 7.54308L13.5572 7.52477L13.5114 7.50695L13.4654 7.48957L13.4191 7.47257L13.3729 7.45618L13.3264 7.44018L13.2798 7.42467L13.2333 7.40965L13.1865 7.39513L13.1398 7.38105L13.0926 7.36741L13.0457 7.35432L12.9986 7.34167L12.9514 7.32952L12.9042 7.3178L12.8567 7.30658L12.8093 7.29586L12.762 7.28563L12.7144 7.27584L12.6667 7.26649L12.6193 7.25774L12.5715 7.24938L12.5239 7.24152L12.4761 7.23409L12.4285 7.22722L12.3805 7.22073L12.3329 7.21484L12.2851 7.20934L12.2373 7.20434L12.1895 7.19983L12.1417 7.19576L12.0941 7.19218L12.0462 7.1891L11.9985 7.18646L11.9509 7.18432L11.903 7.18261L11.8555 7.1814L11.8079 7.18069L11.7604 7.18041L11.7279 7.18052L11.7525 9.25699L11.7672 9.25705L11.7945 9.25743L11.8219 9.25809L11.8493 9.25897L11.8767 9.26024L11.9042 9.26172L11.9317 9.26348L11.9592 9.26557L11.9867 9.26794L12.0143 9.27058L12.0419 9.27349L12.0695 9.27668L12.0971 9.2802L12.1247 9.284L12.1524 9.28807L12.18 9.29247L12.2077 9.29714L12.2353 9.3021L12.2629 9.30737L12.2905 9.31287L12.3181 9.31876L12.3457 9.32486L12.3732 9.3313L12.4007 9.33801L12.4283 9.34499L12.4557 9.35231L12.4832 9.3599L12.5106 9.36777L12.538 9.37596L12.5653 9.38443L12.5925 9.39323L12.6198 9.4023L12.6469 9.41166L12.6741 9.42128L12.7011 9.43123L12.7281 9.44146L12.755 9.45197L12.7819 9.4628L12.8087 9.47391L12.8354 9.4853L12.862 9.49701L12.8886 9.509L12.9151 9.52127L12.9414 9.53386L12.9677 9.54668L12.9939 9.55982L13.02 9.5733L13.0459 9.58699L13.0718 9.60102L13.0976 9.61532L13.1233 9.62989L13.1488 9.64474L13.1742 9.65987L13.1995 9.67532L13.2247 9.69105L13.2498 9.70706L13.2746 9.72328L13.2994 9.73984L13.3241 9.75672L13.3486 9.77383L13.3729 9.79121L13.3972 9.80886L13.4212 9.82679L13.4451 9.845L13.4689 9.86348L13.4925 9.88223L13.5159 9.90126L13.5391 9.92052L13.5623 9.94009L13.5852 9.95989L13.6079 9.97997L13.6305 10.0003L13.6528 10.0209L13.675 10.0418L13.697 10.0629L13.7189 10.0843L13.7405 10.1059L13.7619 10.1278L13.7831 10.1499L13.8041 10.1723L13.8249 10.195L13.8455 10.2178L13.866 10.2409L13.8861 10.2643L13.906 10.2879L13.9258 10.3117L13.9453 10.3358L13.9646 10.3601L13.9836 10.3847L14.0025 10.4095L14.0211 10.4344L14.0394 10.4597L14.0575 10.4851L14.0754 10.5108L14.093 10.5367L14.1103 10.5628L14.1275 10.5891L14.1444 10.6157L14.1609 10.6424L14.1773 10.6693L14.1934 10.6965L14.2092 10.7238L14.2248 10.7514L14.24 10.7792L14.2551 10.8071L14.2698 10.8353L14.2842 10.8636L14.2985 10.8921L14.3123 10.9208L14.3259 10.9497L14.3393 10.9788L14.3523 11.008L14.3651 11.0375L14.3775 11.067L14.3897 11.0968L14.4015 11.1267L14.4131 11.1568L14.4244 11.1871L14.4353 11.2175L14.446 11.248L14.4563 11.2787L14.4663 11.3096L14.476 11.3406L14.4855 11.3717L14.4945 11.403L14.5033 11.4345L14.5118 11.466L14.5199 11.4977L14.5277 11.5295L14.5352 11.5615L14.5423 11.5935L14.5492 11.6257L14.5557 11.658L14.5618 11.6904L14.5676 11.7229L14.5731 11.7555L14.5783 11.7882L14.5831 11.821L14.5876 11.8539L14.5917 11.8869L14.5955 11.92L14.599 11.9532L14.602 11.9864L14.6048 12.0198L14.6072 12.0532L14.6092 12.0866L14.611 12.1202L14.6123 12.1538L14.6133 12.1874L14.6139 12.2212L14.6143 12.2549L14.6142 12.2887L14.6138 12.3226L14.613 12.3565L14.6118 12.3905L14.6104 12.4244L14.6085 12.4584L14.6063 12.4925L14.6037 12.5265L14.6007 12.5606L14.5974 12.5947L14.5938 12.6288L14.5897 12.6629L14.5853 12.6971L14.5806 12.7312L14.5754 12.7653L14.5699 12.7994L14.564 12.8335L14.5578 12.8676L14.5512 12.9017L14.5443 12.9358L14.5369 12.9698L14.5292 13.0038L14.5211 13.0378L14.5127 13.0717L14.5038 13.1057L14.4947 13.1395L14.4851 13.1733L14.4752 13.207L14.4649 13.2408L14.4543 13.2744L14.4433 13.308L14.4319 13.3415L14.4201 13.375L14.408 13.4083L14.3955 13.4416L14.3826 13.4748L14.3694 13.5079L14.3558 13.5409L14.3419 13.5739L14.3276 13.6067L14.3129 13.6395L14.2978 13.6721L14.2824 13.7046L14.2666 13.7371L14.2505 13.7694L14.234 13.8015L14.2172 13.8336L14.1999 13.8655L14.1824 13.8973L14.1645 13.929L14.1462 13.9605L14.1275 13.9919L14.1086 14.0231L14.0892 14.0542L14.0695 14.0851L14.0495 14.1159L14.0291 14.1465L14.0084 14.1769L13.9873 14.2072L13.9658 14.2373L13.944 14.2672L13.922 14.297L13.8995 14.3265L13.8767 14.3559L13.8536 14.3851L13.8301 14.4141L13.8063 14.4428L13.7822 14.4714L13.7577 14.4998L13.7329 14.528L13.7078 14.5559L13.6824 14.5837L13.6566 14.6112L13.6305 14.6385L13.6041 14.6656L13.5774 14.6924L13.5504 14.719L13.523 14.7454L13.4954 14.7715L13.4674 14.7974L13.4391 14.823L13.4105 14.8484L13.3817 14.8735L13.3525 14.8984L13.323 14.923L13.2933 14.9473L13.2632 14.9714L13.2328 14.9952L13.2022 15.0187L13.1713 15.042L13.1401 15.065L13.1087 15.0877L13.0769 15.11L13.0449 15.1322L13.0126 15.154L12.98 15.1755L12.9472 15.1967L12.9141 15.2177L12.8807 15.2383L12.8472 15.2586L12.8133 15.2786L12.7792 15.2983L12.7448 15.3176L12.7102 15.3366L12.6754 15.3554L12.6403 15.3738L12.605 15.3919L12.5695 15.4096L12.5337 15.427L12.4977 15.4441L12.4615 15.4608L12.4251 15.4772L12.3884 15.4932L12.3516 15.5089L12.3145 15.5242L12.2772 15.5392L12.2397 15.5538L12.202 15.5681L12.1642 15.582L12.1261 15.5956L12.0879 15.6088L12.0495 15.6216L12.0109 15.6341L11.9721 15.6462L11.9332 15.6579L11.894 15.6693L11.8547 15.6802L11.8153 15.6908L11.7757 15.701L11.736 15.7109L11.696 15.7203L11.656 15.7293L11.6158 15.738L11.5755 15.7463L11.535 15.7541L11.4944 15.7616L11.4537 15.7687L11.4129 15.7754L11.372 15.7817L11.3309 15.7876L11.2897 15.7931L11.2484 15.7982L11.2071 15.8029L11.1656 15.8071L11.1241 15.811L11.0824 15.8144L11.0407 15.8175L10.9988 15.8201L10.957 15.8223L10.915 15.8242L10.873 15.8255L10.8309 15.8265L10.7887 15.827L10.7466 15.8272L10.7043 15.8269L10.662 15.8262L10.6197 15.825L10.5773 15.8235L10.5349 15.8215L10.4925 15.8191L10.45 15.8163L10.4076 15.813L10.3651 15.8094L10.3226 15.8052L10.2801 15.8007L10.2376 15.7957L10.1952 15.7903L10.1527 15.7845L10.1102 15.7783L10.0678 15.7716L10.0254 15.7645L9.98295 15.7569L9.9406 15.749L9.89826 15.7406L9.85597 15.7318L9.81373 15.7225L9.77155 15.7128L9.72942 15.7027L9.6873 15.6922L9.64528 15.6812L9.60337 15.6697L9.56147 15.6579L9.51973 15.6456L9.47799 15.6329L9.43636 15.6198L9.39483 15.6062L9.35337 15.5923L9.31207 15.5779L9.27082 15.563L9.22969 15.5477L9.18872 15.5321L9.1478 15.5159L9.10705 15.4994L9.06641 15.4824L9.02594 15.4651L8.98558 15.4472L8.94532 15.429L8.90529 15.4104L8.86531 15.3913L8.82555 15.3718L8.78596 15.3519L8.74653 15.3316L8.70727 15.3109L8.66817 15.2898L8.62924 15.2682L8.59052 15.2463L8.55192 15.2239L8.51359 15.2011L8.47543 15.178L8.43749 15.1544L8.39972 15.1304L8.36216 15.106L8.32483 15.0812L8.28771 15.056L8.25087 15.0305L8.2142 15.0045L8.17774 14.9781L8.14156 14.9514L8.1056 14.9242L8.06992 14.8967L8.03446 14.8688L7.99927 14.8405L7.9643 14.8119L7.92961 14.7828L7.89519 14.7534L7.86105 14.7236L7.82718 14.6935L7.79359 14.6629L7.76028 14.632L7.72724 14.6008L7.69453 14.5692L7.66204 14.5372L7.62993 14.5049L7.5981 14.4722L7.56655 14.4391L7.53533 14.4058L7.50444 14.372L7.47387 14.338L7.44359 14.3036L7.41369 14.2689L7.38406 14.2338L7.35476 14.1984L7.32585 14.1627L7.29727 14.1266L7.26902 14.0903L7.2411 14.0536L7.21357 14.0166L7.18642 13.9793L7.15961 13.9417L7.13312 13.9037L7.10702 13.8655L7.0813 13.827L7.05597 13.7882L7.03102 13.7491L7.00641 13.7097L6.98223 13.67L6.95839 13.63L6.93499 13.5898L6.91197 13.5493L6.88934 13.5085L6.86709 13.4675L6.84528 13.4262L6.82386 13.3846L6.80282 13.3428L6.78223 13.3008L6.76208 13.2585L6.74231 13.2159L6.72298 13.1732L6.70409 13.1301L6.68559 13.0869L6.66753 13.0434L6.6499 12.9997L6.63272 12.9558L6.61598 12.9116L6.59974 12.8673L6.58388 12.8228L6.56846 12.778L6.55348 12.7331L6.539 12.688L6.52496 12.6426L6.51135 12.5971L6.49819 12.5514L6.48553 12.5056L6.47336 12.4595L6.46158 12.4133L6.45034 12.367L6.43955 12.3205L6.4292 12.2738L6.41934 12.227L6.40998 12.18L6.40106 12.1329L6.39263 12.0857L6.3847 12.0383L6.37727 11.9909L6.37027 11.9432L6.36378 11.8956L6.35783 11.8477L6.35232 11.7998L6.34731 11.7517L6.34279 11.7036L6.33877 11.6554L6.33525 11.6071L6.33222 11.5587L6.32969 11.5102L6.32765 11.4617L6.32611 11.4131L6.32512 11.3644L6.32462 11.3158L6.32457 11.267L6.32506 11.2181L6.32611 11.1693L6.3276 11.1204L6.32963 11.0714L6.33217 11.0225L6.3352 10.9735L6.33872 10.9245L6.34279 10.8755L6.34736 10.8265L6.35243 10.7775L6.35805 10.7285L6.36416 10.6795L6.37077 10.6306L6.37793 10.5816L6.38558 10.5327L6.39379 10.4838L6.40243 10.4349L6.41163 10.386L6.42138 10.3372L6.43162 10.2885L6.44236 10.2398L6.45359 10.1912L6.46537 10.1427L6.47765 10.0942L6.49048 10.0458L6.50381 9.99751L6.51763 9.94928L6.53195 9.9011L6.54682 9.85308L6.56218 9.80512L6.57804 9.75727L6.59445 9.70959L6.61136 9.66196L6.62876 9.61449L6.64666 9.56714L6.6651 9.51995L6.68405 9.47287L6.70348 9.4259L6.72342 9.37915L6.74385 9.33251L6.76483 9.28603L6.78625 9.23972L6.80822 9.19358L6.83063 9.14765L6.8536 9.10184L6.877 9.05624L6.90096 9.01087L6.92535 8.96566L6.9503 8.92067L6.97568 8.87584L7.00156 8.83124L7.02794 8.78691L7.05481 8.74274L7.08213 8.6988L7.10999 8.65513L7.13829 8.61162L7.16704 8.56839L7.19628 8.52544L7.22602 8.4827L7.25619 8.44024L7.28687 8.39806L7.31798 8.35609L7.34953 8.3144L7.38158 8.27304L7.41407 8.2319L7.44706 8.1911L7.48048 8.1505L7.51429 8.1103L7.5486 8.07031L7.58335 8.03066L7.61853 7.99133L7.65416 7.95228L7.69023 7.91362L7.72674 7.87523L7.76369 7.83717L7.80103 7.79944L7.8388 7.76204L7.87702 7.72497L7.91562 7.68828L7.95466 7.65193L7.99409 7.6159L8.03391 7.58026L8.07416 7.54495L8.11485 7.51009L8.15588 7.47549L8.19735 7.44133L8.23914 7.40756L8.28138 7.37412L8.32394 7.34112L8.36695 7.30851L8.41029 7.27628L8.45401 7.24443L8.49812 7.21303L8.54256 7.18201L8.58739 7.15137L8.6326 7.12118L8.67808 7.09142L8.72395 7.06211L8.77021 7.03318L8.81674 7.00469L8.86366 6.97664L8.91085 6.94903L8.95843 6.92186L9.00628 6.89513L9.05446 6.86884L9.10298 6.84304L9.15177 6.81769L9.20089 6.79277L9.25028 6.76835L9.30001 6.74437L9.35001 6.72089L9.40029 6.69784L9.45084 6.67529L9.50166 6.65324L9.55282 6.63162L9.6042 6.6105L9.6558 6.58993L9.70773 6.5698L9.75987 6.55017L9.81224 6.53103L9.86489 6.51244L9.91781 6.49429L9.97089 6.47669L10.0243 6.45958L10.0778 6.44297L10.1316 6.42691L10.1855 6.41135L10.2397 6.39633L10.2941 6.38181L10.3487 6.36779L10.4035 6.35431L10.4585 6.34139L10.5136 6.32901L10.5689 6.31713L10.6244 6.3058L10.68 6.29502L10.708 6.28985ZM11.3918 10.283L10.7571 10.4345L10.7199 7.29426L10.69 7.30097L10.6449 7.31159L10.5999 7.32264L10.5553 7.33408L10.5107 7.34596L10.4663 7.35828L10.422 7.3711L10.3781 7.38419L10.3341 7.39783L10.2907 7.41174L10.2471 7.42621L10.2038 7.44106L10.1608 7.4563L10.1179 7.47191L10.0754 7.48792L10.0329 7.50442L9.99066 7.52125L9.9487 7.53846L9.90679 7.55617L9.86544 7.5741L9.82408 7.59258L9.78311 7.61134L9.7422 7.63059L9.70167 7.65011L9.66125 7.67008L9.62127 7.69037L9.58146 7.71105L9.54192 7.73212L9.50266 7.75351L9.46361 7.77529L9.42485 7.79746L9.38652 7.8199L9.34814 7.84283L9.31025 7.86599L9.2727 7.88953L9.23536 7.9134L9.19824 7.93765L9.16151 7.96224L9.12506 7.98715L9.08888 8.01234L9.05309 8.03786L9.01746 8.06377L8.98222 8.09L8.9473 8.11651L8.91267 8.14335L8.87842 8.17041L8.84449 8.19786L8.81079 8.22563L8.77742 8.25374L8.74449 8.28201L8.71184 8.31067L8.67951 8.33954L8.64752 8.36874L8.61585 8.39828L8.58458 8.42803L8.55363 8.45801L8.52296 8.48837L8.49273 8.51889L8.46282 8.54975L8.43331 8.58077L8.40401 8.61223L8.37521 8.64375L8.34674 8.67559L8.3186 8.70771L8.2909 8.73994L8.26348 8.77255L8.23655 8.80523L8.20985 8.83834L8.18363 8.8715L8.1577 8.90499L8.1322 8.93871L8.10709 8.97253L8.08231 9.00658L8.05797 9.04084L8.03396 9.07538L8.01034 9.11003L7.98715 9.14496L7.96436 9.17994L7.94194 9.21514L7.91986 9.25061L7.89828 9.28614L7.87696 9.322L7.85615 9.35781L7.83566 9.39394L7.81556 9.43019L7.79596 9.46655L7.77669 9.50306L7.75785 9.53975L7.73935 9.57665L7.72134 9.6135L7.70367 9.65068L7.68643 9.68786L7.66964 9.72521L7.65317 9.76266L7.63715 9.80029L7.62156 9.8379L7.60636 9.87574L7.59161 9.91364L7.57718 9.95164L7.56325 9.98965L7.5497 10.0279L7.53654 10.0662L7.52382 10.1045L7.51148 10.1429L7.49959 10.1814L7.48808 10.22L7.47707 10.2585L7.46638 10.2973L7.45609 10.336L7.44628 10.3748L7.43687 10.4136L7.42784 10.4525L7.41925 10.4915L7.4111 10.5305L7.40333 10.5694L7.39595 10.6084L7.38901 10.6475L7.38252 10.6865L7.3764 10.7255L7.37068 10.7647L7.36539 10.8037L7.36055 10.8429L7.35608 10.8819L7.35201 10.921L7.34838 10.9601L7.34513 10.9991L7.34232 11.0382L7.3399 11.0772L7.33786 11.1162L7.33626 11.1551L7.33505 11.194L7.33428 11.2329L7.33384 11.2718L7.33389 11.3105L7.33428 11.3492L7.3351 11.388L7.33632 11.4266L7.33791 11.4651L7.3399 11.5036L7.34232 11.542L7.34513 11.5804L7.34832 11.6186L7.3519 11.6568L7.35586 11.695L7.36022 11.7329L7.36495 11.7709L7.37007 11.8086L7.37563 11.8464L7.38153 11.884L7.3878 11.9215L7.39447 11.9589L7.40152 11.9962L7.40895 12.0333L7.41671 12.0703L7.42492 12.1073L7.43345 12.144L7.44237 12.1807L7.45163 12.2171L7.46132 12.2536L7.47129 12.2897L7.48164 12.3258L7.49238 12.3617L7.50344 12.3975L7.5149 12.4331L7.52668 12.4684L7.53885 12.5038L7.55135 12.5389L7.56418 12.5738L7.57734 12.6086L7.59089 12.6432L7.60477 12.6776L7.61898 12.7118L7.63346 12.7458L7.64838 12.7796L7.66358 12.8133L7.67911 12.8467L7.69497 12.88L7.7111 12.913L7.72768 12.9459L7.74442 12.9785L7.76154 13.0109L7.779 13.0431L7.79679 13.075L7.81485 13.1068L7.83319 13.1384L7.85185 13.1696L7.87085 13.2008L7.89007 13.2316L7.90962 13.2622L7.9295 13.2926L7.9496 13.3228L7.97003 13.3527L7.99068 13.3823L8.01166 13.4117L8.03291 13.4409L8.05439 13.4698L8.07625 13.4985L8.09828 13.5269L8.12058 13.555L8.14316 13.5829L8.16601 13.6105L8.18903 13.6378L8.21243 13.6649L8.236 13.6918L8.25979 13.7183L8.28397 13.7446L8.3082 13.7705L8.33276 13.7963L8.35754 13.8217L8.38248 13.8468L8.40776 13.8717L8.4332 13.8962L8.45886 13.9206L8.48474 13.9445L8.51084 13.9682L8.53716 13.9917L8.56365 14.0148L8.59036 14.0376L8.61723 14.0601L8.64432 14.0824L8.67164 14.1043L8.69917 14.1259L8.72676 14.1472L8.75462 14.1682L8.78265 14.189L8.81085 14.2094L8.83921 14.2294L8.86773 14.2492L8.89642 14.2687L8.92528 14.2878L8.95424 14.3067L8.98337 14.3252L9.01278 14.3434L9.04218 14.3613L9.07176 14.3789L9.10155 14.3961L9.13134 14.413L9.16129 14.4296L9.19153 14.446L9.22176 14.4619L9.2521 14.4775L9.28255 14.4928L9.31322 14.5078L9.34384 14.5225L9.37473 14.5368L9.40563 14.5509L9.43657 14.5645L9.46774 14.5779L9.49897 14.5909L9.53019 14.6036L9.56158 14.616L9.59302 14.628L9.62463 14.6397L9.65613 14.6511L9.6879 14.6621L9.71957 14.6728L9.75134 14.6832L9.78322 14.6932L9.81516 14.703L9.8471 14.7123L9.87909 14.7214L9.9112 14.7301L9.9433 14.7385L9.97541 14.7465L10.0076 14.7543L10.0397 14.7617L10.0719 14.7687L10.1042 14.7755L10.1365 14.7819L10.1687 14.788L10.201 14.7937L10.2333 14.7991L10.2657 14.8042L10.298 14.809L10.3302 14.8134L10.3625 14.8174L10.3948 14.8212L10.4271 14.8247L10.4594 14.8278L10.4917 14.8306L10.5239 14.8331L10.556 14.8352L10.5882 14.837L10.6204 14.8385L10.6524 14.8397L10.6846 14.8405L10.7165 14.8411L10.7484 14.8413L10.7804 14.8412L10.8122 14.8408L10.8441 14.84L10.8759 14.839L10.9075 14.8377L10.9391 14.836L10.9707 14.834L11.0021 14.8317L11.0336 14.8291L11.0649 14.8262L11.0961 14.823L11.1273 14.8194L11.1583 14.8156L11.1894 14.8115L11.2202 14.807L11.2509 14.8023L11.2817 14.7973L11.3123 14.792L11.3427 14.7864L11.3731 14.7804L11.4034 14.7742L11.4335 14.7677L11.4634 14.761L11.4934 14.7539L11.5232 14.7465L11.5528 14.7389L11.5823 14.731L11.6117 14.7228L11.641 14.7143L11.6701 14.7055L11.699 14.6965L11.7279 14.6871L11.7566 14.6776L11.7851 14.6678L11.8134 14.6577L11.8416 14.6473L11.8698 14.6366L11.8977 14.6257L11.9254 14.6145L11.953 14.6032L11.9804 14.5914L12.0077 14.5795L12.0347 14.5674L12.0617 14.5549L12.0884 14.5423L12.1149 14.5293L12.1413 14.5162L12.1674 14.5028L12.1935 14.4892L12.2193 14.4753L12.2449 14.4612L12.2703 14.4469L12.2955 14.4323L12.3206 14.4175L12.3454 14.4025L12.37 14.3873L12.3944 14.3718L12.4187 14.3562L12.4427 14.3403L12.4665 14.3243L12.4902 14.3079L12.5136 14.2914L12.5367 14.2748L12.5597 14.2578L12.5824 14.2407L12.6049 14.2234L12.6272 14.2059L12.6494 14.1882L12.6712 14.1704L12.6928 14.1523L12.7142 14.1341L12.7353 14.1156L12.7563 14.097L12.777 14.0782L12.7975 14.0593L12.8176 14.0402L12.8377 14.0209L12.8575 14.0015L12.877 13.9819L12.8963 13.9621L12.9153 13.9422L12.9341 13.9221L12.9527 13.9019L12.9709 13.8816L12.989 13.861L13.0068 13.8403L13.0243 13.8196L13.0417 13.7986L13.0587 13.7776L13.0755 13.7563L13.0921 13.735L13.1083 13.7136L13.1244 13.692L13.1402 13.6704L13.1557 13.6485L13.171 13.6265L13.186 13.6046L13.2007 13.5824L13.2153 13.5601L13.2294 13.5378L13.2434 13.5154L13.2571 13.4928L13.2706 13.4702L13.2838 13.4474L13.2967 13.4246L13.3093 13.4017L13.3217 13.3787L13.3338 13.3557L13.3457 13.3325L13.3573 13.3093L13.3686 13.2861L13.3797 13.2626L13.3905 13.2393L13.401 13.2158L13.4113 13.1923L13.4213 13.1686L13.431 13.1451L13.4405 13.1212L13.4496 13.0976L13.4586 13.0737L13.4672 13.0501L13.4756 13.0261L13.4838 13.0021L13.4916 12.9782L13.4992 12.9543L13.5065 12.9303L13.5136 12.9061L13.5204 12.8823L13.527 12.858L13.5332 12.8341L13.5392 12.8099L13.5449 12.7857L13.5504 12.7617L13.5555 12.7377L13.5605 12.7134L13.5652 12.6894L13.5696 12.6651L13.5737 12.6411L13.5776 12.6171L13.5813 12.5929L13.5846 12.5688L13.5877 12.5447L13.5906 12.5207L13.5932 12.4968L13.5955 12.4726L13.5976 12.4487L13.5994 12.4247L13.6009 12.4008L13.6022 12.3769L13.6033 12.3531L13.6041 12.3294L13.6046 12.3055L13.6049 12.2817L13.605 12.2581L13.6048 12.2345L13.6043 12.211L13.6036 12.1875L13.6027 12.1639L13.6015 12.1408L13.6 12.1171L13.5984 12.0941L13.5965 12.0709L13.5943 12.0476L13.5919 12.0245L13.5893 12.0017L13.5864 11.9786L13.5833 11.9559L13.5799 11.9331L13.5764 11.9106L13.5726 11.8879L13.5685 11.8653L13.5643 11.843L13.5598 11.8207L13.5551 11.7984L13.5501 11.7763L13.545 11.7543L13.5396 11.7324L13.5341 11.7107L13.5282 11.6888L13.5222 11.6673L13.5159 11.6456L13.5095 11.6244L13.5028 11.6031L13.496 11.582L13.4889 11.5609L13.4815 11.5399L13.4741 11.5192L13.4664 11.4986L13.4585 11.4779L13.4504 11.4575L13.442 11.4371L13.4336 11.4171L13.4249 11.3969L13.4161 11.3771L13.407 11.3574L13.3977 11.3377L13.3883 11.3182L13.3787 11.2989L13.3689 11.2796L13.3589 11.2606L13.3487 11.2417L13.3384 11.2229L13.3279 11.2043L13.3172 11.1858L13.3064 11.1675L13.2953 11.1493L13.2841 11.1312L13.2728 11.1135L13.2613 11.0958L13.2496 11.0782L13.2377 11.0608L13.2258 11.0436L13.2136 11.0265L13.2013 11.0096L13.1889 10.9929L13.1763 10.9763L13.1636 10.96L13.1507 10.9437L13.1377 10.9277L13.1245 10.9118L13.1113 10.896L13.0978 10.8805L13.0843 10.8651L13.0706 10.85L13.0568 10.8349L13.0429 10.82L13.0288 10.8054L13.0146 10.7909L13.0003 10.7766L12.9859 10.7625L12.9714 10.7486L12.9568 10.7348L12.9419 10.7212L12.9272 10.7078L12.9122 10.6946L12.8972 10.6816L12.882 10.6687L12.8667 10.6561L12.8513 10.6437L12.8359 10.6314L12.8204 10.6193L12.8048 10.6074L12.7891 10.5957L12.7733 10.5841L12.7573 10.5728L12.7414 10.5617L12.7254 10.5507L12.7093 10.54L12.6931 10.5294L12.6768 10.519L12.6606 10.5089L12.6441 10.4988L12.6277 10.489L12.6112 10.4795L12.5947 10.4701L12.578 10.4608L12.5614 10.4518L12.5447 10.443L12.5279 10.4343L12.5111 10.4259L12.4942 10.4176L12.4773 10.4096L12.4604 10.4018L12.4434 10.3941L12.4264 10.3866L12.4093 10.3793L12.3923 10.3722L12.3751 10.3654L12.3579 10.3586L12.3408 10.3522L12.3236 10.3458L12.3065 10.3397L12.2892 10.3338L12.272 10.328L12.2548 10.3225L12.2375 10.3171L12.2202 10.3119L12.203 10.307L12.1856 10.3022L12.1685 10.2976L12.1512 10.2932L12.1339 10.289L12.1166 10.285L12.0993 10.2811L12.0821 10.2775L12.0648 10.2741L12.0476 10.2708L12.0305 10.2677L12.0132 10.2648L11.9961 10.2621L11.9788 10.2595L11.9618 10.2572L11.9446 10.255L11.9275 10.253L11.9106 10.2512L11.8935 10.2496L11.8765 10.2481L11.8596 10.2468L11.8427 10.2457L11.8258 10.2448L11.8089 10.2441L11.7922 10.2435L11.7754 10.2431L11.7588 10.2429L11.7421 10.2428L11.7255 10.243L11.7089 10.2433L11.6925 10.2437L11.676 10.2444L11.6597 10.2451L11.6433 10.2461L11.6271 10.2472L11.6109 10.2485L11.5948 10.25L11.5787 10.2516L11.5627 10.2533L11.5468 10.2552L11.5309 10.2573L11.5152 10.2596L11.4994 10.262L11.4839 10.2645L11.4683 10.2672L11.4529 10.2701L11.4374 10.2731L11.4222 10.2763L11.4069 10.2796L11.3918 10.283Z" fill="url(#paint0_linear_1344_178)"/>
<defs>
<linearGradient id="paint0_linear_1344_178" x1="19.6628" y1="7.54621e-07" x2="0.00839521" y2="23.9905" gradientUnits="userSpaceOnUse">
<stop stop-color="#FFB800"/>
<stop offset="1" stop-color="#FFB800" stop-opacity="0"/>
</linearGradient>
</defs>
</svg>
